<?xml version="1.0" encoding="UTF-8" standalone="no"?>
<svg width="12px" height="16px" viewBox="0 0 12 16" version="1.1" xmlns="http://www.w3.org/2000/svg" xmlns:xlink="http://www.w3.org/1999/xlink" xmlns:sketch="http://www.bohemiancoding.com/sketch/ns">
    <!-- Generator: Sketch 3.3.3 (12072) - http://www.bohemiancoding.com/sketch -->
    <title>academy</title>
    <desc>Created with Sketch.</desc>
    <defs></defs>
    <g id="Public" stroke="none" stroke-width="1" fill="none" fill-rule="evenodd" sketch:type="MSPage">
        <g id="Search" sketch:type="MSArtboardGroup" transform="translate(-823.000000, -469.000000)" fill="#FFFFFF">
            <g id="Pins" sketch:type="MSLayerGroup" transform="translate(624.000000, 276.000000)">
                <g id="Gov-Copy-4" transform="translate(190.000000, 187.000000)" sketch:type="MSShapeGroup">
                    <path d="M18.7761039,6 L9,6 L9,21.4285714 L21,21.4285714 L21,8.14862338 L18.7761039,6 Z M19.9090909,20.3376623 L10.0909091,20.3376623 L10.0909091,7.09090909 L18.4457143,7.09090909 L19.9090909,8.44363636 L19.9090909,20.3376623 Z M17.6890909,7.66161039 L17.6890909,9.31371429 L19.332,9.31371429 L19.332,8.76311688 L18.237039,8.76311688 L18.237039,7.66161039 L17.6890909,7.66161039 Z M11.666026,12.067013 L18.2368831,12.067013 L18.2368831,12.6180779 L11.666026,12.6180779 L11.666026,12.067013 Z M11.666026,14.8203117 L18.2368831,14.8203117 L18.2368831,15.3712208 L11.666026,15.3712208 L11.666026,14.8203117 Z M11.666026,17.5739221 L18.2368831,17.5739221 L18.2368831,18.1243636 L11.666026,18.1243636 L11.666026,17.5739221 Z" id="academy"></path>
                </g>
            </g>
        </g>
    </g>
</svg>