<?xml version="1.0" encoding="UTF-8" standalone="no"?>
<svg width="14px" height="14px" viewBox="0 0 14 14" version="1.1" xmlns="http://www.w3.org/2000/svg" xmlns:xlink="http://www.w3.org/1999/xlink" xmlns:sketch="http://www.bohemiancoding.com/sketch/ns">
    <!-- Generator: Sketch 3.3.3 (12072) - http://www.bohemiancoding.com/sketch -->
    <title>anchor</title>
    <desc>Created with Sketch.</desc>
    <defs></defs>
    <g id="Public" stroke="none" stroke-width="1" fill="none" fill-rule="evenodd" sketch:type="MSPage">
        <g id="Search" sketch:type="MSArtboardGroup" transform="translate(-111.000000, -224.000000)" fill="#000000">
            <g id="Details" sketch:type="MSLayerGroup" transform="translate(60.000000, 144.000000)">
                <g id="Head" transform="translate(0.000000, 1.000000)" sketch:type="MSShapeGroup">
                    <g id="Twitter" transform="translate(50.000000, 76.800000)">
                        <path d="M10.7260539,6.27347376 C11.0420306,6.58945054 11.0420306,7.10178478 10.7260223,7.41779311 L6.4167919,11.7270551 C6.10081511,12.0430634 5.58848088,12.0430318 5.2725041,11.7270235 L5.2725041,11.7270235 C4.95646421,11.4110467 4.95646421,10.8987125 5.27247254,10.5827357 L9.58170295,6.27347376 C9.89767973,5.95749698 10.410014,5.95749698 10.7260539,6.27347376 L10.7260539,6.27347376 L10.7260539,6.27347376 Z M5.77609801,13.524248 C5.14177793,14.158568 4.10966284,14.158568 3.47531121,13.524248 C2.84099113,12.8898963 2.84099113,11.8577812 3.47531121,11.2234612 L6.52940635,8.17283689 C5.50458012,7.92403752 4.37843558,8.19975203 3.57820718,8.99998043 L2.41498728,10.1631688 C1.19408757,11.3840685 1.19408757,13.3636091 2.41498728,14.5845403 C3.63591854,15.80544 5.61545913,15.80544 6.83635883,14.5845403 L7.99954718,13.421352 C8.79964936,12.6212182 9.07536388,11.495263 8.82675382,10.470563 L5.77609801,13.524248 L5.77609801,13.524248 Z M9.16226223,3.41586228 L7.99913698,4.57901907 C7.19887703,5.37927903 6.92145863,6.50365657 7.17022645,7.52851435 L10.2225546,4.47615465 C10.8569062,3.84183458 11.8889582,3.84183458 12.5233099,4.47615465 C13.1576615,5.11047473 13.1576615,6.14255827 12.5233414,6.7769099 L9.47117102,9.82908029 C10.4959026,10.0777219 11.6203117,9.80055592 12.420477,9.00035907 L13.5836653,7.83717072 C14.8045335,6.61627102 14.8045335,4.63676199 13.5836338,3.41583073 C12.3627025,2.19493102 10.383225,2.19493102 9.16226223,3.41586228 L9.16226223,3.41586228 L9.16226223,3.41586228 Z" id="anchor"></path>
                    </g>
                </g>
            </g>
        </g>
    </g>
</svg>