<?xml version="1.0" encoding="UTF-8" standalone="no"?>
<svg width="16px" height="19px" viewBox="0 0 16 19" version="1.1" xmlns="http://www.w3.org/2000/svg" xmlns:xlink="http://www.w3.org/1999/xlink" xmlns:sketch="http://www.bohemiancoding.com/sketch/ns">
    <!-- Generator: Sketch 3.3.3 (12072) - http://www.bohemiancoding.com/sketch -->
    <title>bell</title>
    <desc>Created with Sketch.</desc>
    <defs></defs>
    <g id="Public" stroke="none" stroke-width="1" fill="none" fill-rule="evenodd" sketch:type="MSPage">
        <g id="Search" sketch:type="MSArtboardGroup" transform="translate(-1245.000000, -86.000000)" fill="#FFFFFF">
            <g id="Header" sketch:type="MSLayerGroup" transform="translate(40.000000, 65.000000)">
                <g id="Group" transform="translate(1176.000000, 15.000000)" sketch:type="MSShapeGroup">
                    <path d="M39.4767258,9.10965314 C38.9636537,8.8151245 38.6459393,8.26647021 38.6469953,7.67488774 L38.6469953,7.67199525 C38.6469953,6.74855728 37.8983461,6 36.975,6 C36.051562,6 35.3030047,6.74855728 35.3030047,7.67199525 L35.3030047,7.67493365 C35.3040148,8.26725072 34.9869891,8.81484902 34.4732742,9.10969905 C30.7505974,11.2464665 32.8897064,18.3427473 29,19.5969388 L29,21.2544257 L44.95,21.2544257 L44.95,19.5969388 C41.0602477,18.3427014 43.1994026,11.2464206 39.4767258,9.10965314 L39.4767258,9.10965314 Z M36.975,6.99363817 C37.3490491,6.99363817 37.6533571,7.29790026 37.6533571,7.67199525 C37.6533571,8.04604433 37.3490491,8.35035233 36.975,8.35035233 C36.6009509,8.35035233 36.2966429,8.04604433 36.2966429,7.67199525 C36.2966429,7.29794617 36.6009509,6.99363817 36.975,6.99363817 L36.975,6.99363817 Z M39.278292,22.6356113 C39.278292,23.8950368 38.2573818,24.915947 36.9979562,24.915947 C35.7385766,24.915947 34.7176205,23.8950368 34.7176205,22.6356113 L39.278292,22.6356113 L39.278292,22.6356113 Z" id="bell"></path>
                </g>
            </g>
        </g>
    </g>
</svg>