<?xml version="1.0" encoding="UTF-8" standalone="no"?>
<svg width="73px" height="44px" viewBox="0 0 73 44" version="1.1" xmlns="http://www.w3.org/2000/svg" xmlns:xlink="http://www.w3.org/1999/xlink" xmlns:sketch="http://www.bohemiancoding.com/sketch/ns">
    <!-- Generator: Sketch 3.4 (15575) - http://www.bohemiancoding.com/sketch -->
    <title>bill</title>
    <desc>Created with Sketch.</desc>
    <defs></defs>
    <g id="Public" stroke="none" stroke-width="1" fill="none" fill-rule="evenodd" sketch:type="MSPage">
        <g id="Onboarding" sketch:type="MSArtboardGroup" transform="translate(-915.000000, -432.000000)" fill="#FFFFFF">
            <g id="Interested-in?" sketch:type="MSLayerGroup" transform="translate(361.000000, 298.000000)">
                <g id="Option:-Organization" transform="translate(479.000000, 71.000000)" sketch:type="MSShapeGroup">
                    <path d="M76.13,105.916033 C76.601,106.33807 77.141,106.580002 77.813,106.580002 L145.082,106.580002 C145.757,106.580002 146.294,106.33807 146.765,105.916033 C147.239,105.493997 147.506,105.010133 147.506,104.407991 L147.506,65.6720106 C147.506,65.0671809 147.239,64.5860053 146.765,64.1639686 C146.294,63.7419319 145.757,63.5 145.082,63.5 L77.813,63.5 C77.141,63.5 76.601,63.7419319 76.13,64.1639686 C75.659,64.5860053 75.389,65.0671809 75.389,65.6720106 L75.389,104.407991 C75.389,105.010133 75.659,105.493997 76.13,105.916033 L76.13,105.916033 Z M80.171,76.4110975 C82.796,76.4110975 85.085,75.5670241 86.972,73.8761891 C88.856,72.1880423 89.798,70.1369977 89.798,67.7821941 L133.097,67.7821941 C133.097,70.1369977 134.039,72.1880423 135.926,73.8761891 C137.81,75.5670241 140.099,76.4110975 142.727,76.4110975 L142.727,93.6689043 C140.099,93.6689043 137.81,94.5129777 135.926,96.2011246 C134.039,97.8919595 133.097,99.9430042 133.097,102.29512 L89.798,102.29512 C89.798,99.9430042 88.856,97.8919595 86.972,96.2011246 C85.085,94.5129777 82.796,93.6689043 80.171,93.6689043 L80.171,76.4110975 L80.171,76.4110975 Z M102.458,94.3301848 C103.4,95.719949 104.681,96.8650931 106.229,97.7091666 C107.846,98.615067 109.595,99.0371037 111.482,99.0371037 C113.3,99.0371037 115.052,98.615067 116.666,97.7091666 C118.214,96.8650931 119.495,95.719949 120.437,94.3301848 C121.448,92.9431087 122.189,91.4350667 122.66,89.8060588 C123.197,88.1770508 123.467,86.6071818 123.467,85.0400009 C123.467,83.4701319 123.197,81.841124 122.66,80.2739431 C122.189,78.6449351 121.448,77.134205 120.437,75.7471289 C119.495,74.3600529 118.214,73.2122206 116.666,72.3681471 C115.052,71.4649348 113.3,71.04021 111.482,71.04021 C109.595,71.04021 107.846,71.4649348 106.229,72.3681471 C104.681,73.2122206 103.4,74.3600529 102.458,75.7471289 C101.45,77.134205 100.709,78.6449351 100.235,80.2739431 C99.698,81.841124 99.428,83.4701319 99.428,85.0400009 C99.428,86.6071818 99.698,88.1770508 100.235,89.8060588 C100.709,91.4350667 101.45,92.9431087 102.458,94.3301848 L102.458,94.3301848 Z M109.595,75.3250922 L113.84,75.3250922 L113.84,90.4108885 L118.688,90.4108885 L118.688,93.6689043 L104.21,93.6689043 L104.21,90.4108885 L109.058,90.4108885 L109.058,80.6959798 L108.989,80.6959798 C108.653,81.1771554 107.981,81.7819851 106.904,82.6260585 L104.006,79.9701842 L109.595,75.3250922 L109.595,75.3250922 Z" id="bill"></path>
                </g>
            </g>
        </g>
    </g>
</svg>