<?xml version="1.0" encoding="UTF-8" standalone="no"?>
<svg width="44px" height="57px" viewBox="0 0 44 57" version="1.1" xmlns="http://www.w3.org/2000/svg" xmlns:xlink="http://www.w3.org/1999/xlink" xmlns:sketch="http://www.bohemiancoding.com/sketch/ns">
    <!-- Generator: Sketch 3.4 (15575) - http://www.bohemiancoding.com/sketch -->
    <title>building</title>
    <desc>Created with Sketch.</desc>
    <defs></defs>
    <g id="Public" stroke="none" stroke-width="1" fill="none" fill-rule="evenodd" sketch:type="MSPage">
        <g id="Onboarding" sketch:type="MSArtboardGroup" transform="translate(-452.000000, -656.000000)" fill="#FFFFFF">
            <g id="Interested-in?" sketch:type="MSLayerGroup" transform="translate(361.000000, 298.000000)">
                <g id="Option:-Innovator" transform="translate(0.000000, 298.000000)" sketch:type="MSShapeGroup">
                    <path d="M91.7998824,116.107028 C92.1877647,116.499774 92.63,116.724915 93.1858824,116.724915 L132.779529,116.724915 C133.332941,116.724915 133.777647,116.499774 134.165529,116.107028 C134.553412,115.714282 134.775765,115.264 134.775765,114.703649 L134.775765,62.596 C134.775765,62.0356489 134.553412,61.5853668 134.165529,61.1375862 C133.777647,60.7423386 133.332941,60.5747335 132.779529,60.5747335 L93.1858824,60.5747335 C92.63,60.5747335 92.1877647,60.7423386 91.7998824,61.1375862 C91.4095294,61.5853668 91.1896471,62.0356489 91.1896471,62.596 L91.1896471,114.703649 C91.1896471,115.264 91.4095294,115.714282 91.7998824,116.107028 L91.7998824,116.107028 Z M95.1252941,64.562232 L130.783294,64.562232 L130.783294,112.682382 L118.914588,112.682382 L118.914588,105.662984 C118.914588,105.437843 118.805882,105.157668 118.637882,104.990063 C118.415529,104.764922 118.195647,104.707386 117.916471,104.707386 L108.046471,104.707386 C107.769765,104.707386 107.547412,104.764922 107.325059,104.990063 C107.105176,105.157668 107.048353,105.437843 107.048353,105.662984 L107.048353,112.682382 L95.1252941,112.682382 L95.1252941,64.562232 L95.1252941,64.562232 Z M99.3944706,104.372176 C99.6168235,104.594815 99.8391765,104.707386 100.115882,104.707386 L102.057765,104.707386 C102.334471,104.707386 102.556824,104.594815 102.779176,104.372176 C103.001529,104.202069 103.055882,103.979429 103.055882,103.696752 L103.055882,101.675486 C103.055882,101.39531 103.001529,101.170169 102.779176,100.945028 C102.556824,100.777423 102.334471,100.664853 102.057765,100.664853 L100.115882,100.664853 C99.8391765,100.664853 99.6168235,100.777423 99.3944706,100.945028 C99.2289412,101.170169 99.1177647,101.39531 99.1177647,101.675486 L99.1177647,103.696752 C99.1177647,103.979429 99.2289412,104.202069 99.3944706,104.372176 L99.3944706,104.372176 Z M99.3944706,96.3421442 C99.6168235,96.5672853 99.8391765,96.6798558 100.115882,96.6798558 L102.057765,96.6798558 C102.334471,96.6798558 102.556824,96.5672853 102.779176,96.3421442 C103.001529,96.1745392 103.055882,95.9493981 103.055882,95.6692226 L103.055882,93.6479561 C103.055882,93.365279 103.001529,93.1426395 102.779176,92.9725329 C102.556824,92.7473918 102.334471,92.6373229 102.057765,92.6373229 L100.115882,92.6373229 C99.8391765,92.6373229 99.6168235,92.7473918 99.3944706,92.9725329 C99.2289412,93.1426395 99.1177647,93.365279 99.1177647,93.6479561 L99.1177647,95.6692226 C99.1177647,95.9493981 99.2289412,96.1745392 99.3944706,96.3421442 L99.3944706,96.3421442 Z M99.3944706,88.3696489 C99.6168235,88.5372539 99.8391765,88.6498245 100.115882,88.6498245 L102.057765,88.6498245 C102.334471,88.6498245 102.556824,88.5372539 102.779176,88.3696489 C103.001529,88.1445078 103.055882,87.9193668 103.055882,87.6391912 L103.055882,85.6179248 C103.055882,85.3377492 103.001529,85.1126082 102.779176,84.9425016 C102.556824,84.7198621 102.334471,84.6072915 102.057765,84.6072915 L100.115882,84.6072915 C99.8391765,84.6072915 99.6168235,84.7198621 99.3944706,84.9425016 C99.2289412,85.1126082 99.1177647,85.3377492 99.1177647,85.6179248 L99.1177647,87.6391912 C99.1177647,87.9193668 99.2289412,88.1445078 99.3944706,88.3696489 L99.3944706,88.3696489 Z M99.3944706,80.3396176 C99.6168235,80.5072226 99.8391765,80.6197931 100.115882,80.6197931 L102.057765,80.6197931 C102.334471,80.6197931 102.556824,80.5072226 102.779176,80.3396176 C103.001529,80.1144765 103.055882,79.8893354 103.055882,79.6091599 L103.055882,77.5878934 C103.055882,77.3627524 103.001529,77.0825768 102.779176,76.9149718 C102.556824,76.6898307 102.334471,76.6347962 102.057765,76.6347962 L100.115882,76.6347962 C99.8391765,76.6347962 99.6168235,76.6898307 99.3944706,76.9149718 C99.2289412,77.0825768 99.1177647,77.3627524 99.1177647,77.5878934 L99.1177647,79.6091599 C99.1177647,79.8893354 99.2289412,80.1144765 99.3944706,80.3396176 L99.3944706,80.3396176 Z M99.3944706,72.3095862 C99.6168235,72.4796928 99.8391765,72.5897618 100.115882,72.5897618 L102.057765,72.5897618 C102.334471,72.5897618 102.556824,72.4796928 102.779176,72.3095862 C103.001529,72.0844451 103.055882,71.8618056 103.055882,71.5791285 L103.055882,69.6153981 C103.055882,69.3352226 103.001529,69.1100815 102.779176,68.8849404 C102.556824,68.6597994 102.334471,68.6047649 102.057765,68.6047649 L100.115882,68.6047649 C99.8391765,68.6047649 99.6168235,68.6597994 99.3944706,68.8849404 C99.2289412,69.1100815 99.1177647,69.3352226 99.1177647,69.6153981 L99.1177647,71.5791285 C99.1177647,71.8618056 99.2289412,72.0844451 99.3944706,72.3095862 L99.3944706,72.3095862 Z M107.325059,96.3421442 C107.547412,96.5672853 107.769765,96.6798558 108.046471,96.6798558 L109.988353,96.6798558 C110.265059,96.6798558 110.487412,96.5672853 110.709765,96.3421442 C110.875294,96.1745392 110.986471,95.9493981 110.986471,95.6692226 L110.986471,93.6479561 C110.986471,93.365279 110.875294,93.1426395 110.709765,92.9725329 C110.487412,92.7473918 110.265059,92.6373229 109.988353,92.6373229 L108.046471,92.6373229 C107.769765,92.6373229 107.547412,92.7473918 107.325059,92.9725329 C107.105176,93.1426395 107.048353,93.365279 107.048353,93.6479561 L107.048353,95.6692226 C107.048353,95.9493981 107.105176,96.1745392 107.325059,96.3421442 L107.325059,96.3421442 Z M107.325059,88.3696489 C107.547412,88.5372539 107.769765,88.6498245 108.046471,88.6498245 L109.988353,88.6498245 C110.265059,88.6498245 110.487412,88.5372539 110.709765,88.3696489 C110.875294,88.1445078 110.986471,87.9193668 110.986471,87.6391912 L110.986471,85.6179248 C110.986471,85.3377492 110.875294,85.1126082 110.709765,84.9425016 C110.487412,84.7198621 110.265059,84.6072915 109.988353,84.6072915 L108.046471,84.6072915 C107.769765,84.6072915 107.547412,84.7198621 107.325059,84.9425016 C107.105176,85.1126082 107.048353,85.3377492 107.048353,85.6179248 L107.048353,87.6391912 C107.048353,87.9193668 107.105176,88.1445078 107.325059,88.3696489 L107.325059,88.3696489 Z M107.325059,80.3396176 C107.547412,80.5072226 107.769765,80.6197931 108.046471,80.6197931 L109.988353,80.6197931 C110.265059,80.6197931 110.487412,80.5072226 110.709765,80.3396176 C110.875294,80.1144765 110.986471,79.8893354 110.986471,79.6091599 L110.986471,77.5878934 C110.986471,77.3627524 110.875294,77.0825768 110.709765,76.9149718 C110.487412,76.6898307 110.265059,76.6347962 109.988353,76.6347962 L108.046471,76.6347962 C107.769765,76.6347962 107.547412,76.6898307 107.325059,76.9149718 C107.105176,77.0825768 107.048353,77.3627524 107.048353,77.5878934 L107.048353,79.6091599 C107.048353,79.8893354 107.105176,80.1144765 107.325059,80.3396176 L107.325059,80.3396176 Z M107.325059,72.3095862 C107.547412,72.4796928 107.769765,72.5897618 108.046471,72.5897618 L109.988353,72.5897618 C110.265059,72.5897618 110.487412,72.4796928 110.709765,72.3095862 C110.875294,72.0844451 110.986471,71.8618056 110.986471,71.5791285 L110.986471,69.6153981 C110.986471,69.3352226 110.875294,69.1100815 110.709765,68.8849404 C110.487412,68.6597994 110.265059,68.6047649 109.988353,68.6047649 L108.046471,68.6047649 C107.769765,68.6047649 107.547412,68.6597994 107.325059,68.8849404 C107.105176,69.1100815 107.048353,69.3352226 107.048353,69.6153981 L107.048353,71.5791285 C107.048353,71.8618056 107.105176,72.0844451 107.325059,72.3095862 L107.325059,72.3095862 Z M115.255647,96.3421442 C115.421176,96.5672853 115.700353,96.6798558 115.920235,96.6798558 L117.916471,96.6798558 C118.195647,96.6798558 118.415529,96.5672853 118.637882,96.3421442 C118.805882,96.1745392 118.914588,95.9493981 118.914588,95.6692226 L118.914588,93.6479561 C118.914588,93.365279 118.805882,93.1426395 118.637882,92.9725329 C118.415529,92.7473918 118.195647,92.6373229 117.916471,92.6373229 L115.920235,92.6373229 C115.700353,92.6373229 115.421176,92.7473918 115.255647,92.9725329 C115.033294,93.1426395 114.978941,93.365279 114.978941,93.6479561 L114.978941,95.6692226 C114.978941,95.9493981 115.033294,96.1745392 115.255647,96.3421442 L115.255647,96.3421442 Z M115.255647,88.3696489 C115.421176,88.5372539 115.700353,88.6498245 115.920235,88.6498245 L117.916471,88.6498245 C118.195647,88.6498245 118.415529,88.5372539 118.637882,88.3696489 C118.805882,88.1445078 118.914588,87.9193668 118.914588,87.6391912 L118.914588,85.6179248 C118.914588,85.3377492 118.805882,85.1126082 118.637882,84.9425016 C118.415529,84.7198621 118.195647,84.6072915 117.916471,84.6072915 L115.920235,84.6072915 C115.700353,84.6072915 115.421176,84.7198621 115.255647,84.9425016 C115.033294,85.1126082 114.978941,85.3377492 114.978941,85.6179248 L114.978941,87.6391912 C114.978941,87.9193668 115.033294,88.1445078 115.255647,88.3696489 L115.255647,88.3696489 Z M115.255647,80.3396176 C115.421176,80.5072226 115.700353,80.6197931 115.920235,80.6197931 L117.916471,80.6197931 C118.195647,80.6197931 118.415529,80.5072226 118.637882,80.3396176 C118.805882,80.1144765 118.914588,79.8893354 118.914588,79.6091599 L118.914588,77.5878934 C118.914588,77.3627524 118.805882,77.0825768 118.637882,76.9149718 C118.415529,76.6898307 118.195647,76.6347962 117.916471,76.6347962 L115.920235,76.6347962 C115.700353,76.6347962 115.421176,76.6898307 115.255647,76.9149718 C115.033294,77.0825768 114.978941,77.3627524 114.978941,77.5878934 L114.978941,79.6091599 C114.978941,79.8893354 115.033294,80.1144765 115.255647,80.3396176 L115.255647,80.3396176 Z M115.255647,72.3095862 C115.421176,72.4796928 115.700353,72.5897618 115.920235,72.5897618 L117.916471,72.5897618 C118.195647,72.5897618 118.415529,72.4796928 118.637882,72.3095862 C118.805882,72.0844451 118.914588,71.8618056 118.914588,71.5791285 L118.914588,69.6153981 C118.914588,69.3352226 118.805882,69.1100815 118.637882,68.8849404 C118.415529,68.6597994 118.195647,68.6047649 117.916471,68.6047649 L115.920235,68.6047649 C115.700353,68.6047649 115.421176,68.6597994 115.255647,68.8849404 C115.033294,69.1100815 114.978941,69.3352226 114.978941,69.6153981 L114.978941,71.5791285 C114.978941,71.8618056 115.033294,72.0844451 115.255647,72.3095862 L115.255647,72.3095862 Z M123.186235,104.372176 C123.351765,104.594815 123.574118,104.707386 123.850824,104.707386 L125.847059,104.707386 C126.123765,104.707386 126.346118,104.594815 126.568471,104.372176 C126.734,104.202069 126.845176,103.979429 126.845176,103.696752 L126.845176,101.675486 C126.845176,101.39531 126.734,101.170169 126.568471,100.945028 C126.346118,100.777423 126.123765,100.664853 125.847059,100.664853 L123.850824,100.664853 C123.574118,100.664853 123.351765,100.777423 123.186235,100.945028 C122.963882,101.170169 122.852706,101.39531 122.852706,101.675486 L122.852706,103.696752 C122.852706,103.979429 122.963882,104.202069 123.186235,104.372176 L123.186235,104.372176 Z M123.186235,96.3421442 C123.351765,96.5672853 123.574118,96.6798558 123.850824,96.6798558 L125.847059,96.6798558 C126.123765,96.6798558 126.346118,96.5672853 126.568471,96.3421442 C126.734,96.1745392 126.845176,95.9493981 126.845176,95.6692226 L126.845176,93.6479561 C126.845176,93.365279 126.734,93.1426395 126.568471,92.9725329 C126.346118,92.7473918 126.123765,92.6373229 125.847059,92.6373229 L123.850824,92.6373229 C123.574118,92.6373229 123.351765,92.7473918 123.186235,92.9725329 C122.963882,93.1426395 122.852706,93.365279 122.852706,93.6479561 L122.852706,95.6692226 C122.852706,95.9493981 122.963882,96.1745392 123.186235,96.3421442 L123.186235,96.3421442 Z M123.186235,88.3696489 C123.351765,88.5372539 123.574118,88.6498245 123.850824,88.6498245 L125.847059,88.6498245 C126.123765,88.6498245 126.346118,88.5372539 126.568471,88.3696489 C126.734,88.1445078 126.845176,87.9193668 126.845176,87.6391912 L126.845176,85.6179248 C126.845176,85.3377492 126.734,85.1126082 126.568471,84.9425016 C126.346118,84.7198621 126.123765,84.6072915 125.847059,84.6072915 L123.850824,84.6072915 C123.574118,84.6072915 123.351765,84.7198621 123.186235,84.9425016 C122.963882,85.1126082 122.852706,85.3377492 122.852706,85.6179248 L122.852706,87.6391912 C122.852706,87.9193668 122.963882,88.1445078 123.186235,88.3696489 L123.186235,88.3696489 Z M123.186235,80.3396176 C123.351765,80.5072226 123.574118,80.6197931 123.850824,80.6197931 L125.847059,80.6197931 C126.123765,80.6197931 126.346118,80.5072226 126.568471,80.3396176 C126.734,80.1144765 126.845176,79.8893354 126.845176,79.6091599 L126.845176,77.5878934 C126.845176,77.3627524 126.734,77.0825768 126.568471,76.9149718 C126.346118,76.6898307 126.123765,76.6347962 125.847059,76.6347962 L123.850824,76.6347962 C123.574118,76.6347962 123.351765,76.6898307 123.186235,76.9149718 C122.963882,77.0825768 122.852706,77.3627524 122.852706,77.5878934 L122.852706,79.6091599 C122.852706,79.8893354 122.963882,80.1144765 123.186235,80.3396176 L123.186235,80.3396176 Z M123.186235,72.3095862 C123.351765,72.4796928 123.574118,72.5897618 123.850824,72.5897618 L125.847059,72.5897618 C126.123765,72.5897618 126.346118,72.4796928 126.568471,72.3095862 C126.734,72.0844451 126.845176,71.8618056 126.845176,71.5791285 L126.845176,69.6153981 C126.845176,69.3352226 126.734,69.1100815 126.568471,68.8849404 C126.346118,68.6597994 126.123765,68.6047649 125.847059,68.6047649 L123.850824,68.6047649 C123.574118,68.6047649 123.351765,68.6597994 123.186235,68.8849404 C122.963882,69.1100815 122.852706,69.3352226 122.852706,69.6153981 L122.852706,71.5791285 C122.852706,71.8618056 122.963882,72.0844451 123.186235,72.3095862 L123.186235,72.3095862 Z" id="building"></path>
                </g>
            </g>
        </g>
    </g>
</svg>