<?xml version="1.0" encoding="UTF-8" standalone="no"?>
<svg width="52px" height="56px" viewBox="0 0 52 56" version="1.1" xmlns="http://www.w3.org/2000/svg" xmlns:xlink="http://www.w3.org/1999/xlink" xmlns:sketch="http://www.bohemiancoding.com/sketch/ns">
    <!-- Generator: Sketch 3.4 (15575) - http://www.bohemiancoding.com/sketch -->
    <title>calendar</title>
    <desc>Created with Sketch.</desc>
    <defs></defs>
    <g id="Public" stroke="none" stroke-width="1" fill="none" fill-rule="evenodd" sketch:type="MSPage">
        <g id="Onboarding" sketch:type="MSArtboardGroup" transform="translate(-924.000000, -651.000000)" fill="#FFFFFF">
            <g id="Interested-in?" sketch:type="MSLayerGroup" transform="translate(361.000000, 298.000000)">
                <g id="Option:-Organization" transform="translate(479.000000, 298.000000)" sketch:type="MSShapeGroup">
                    <path d="M85.1614747,109.513361 C85.9341506,110.294817 86.8741577,110.684304 87.9224378,110.684304 L131.335015,110.684304 C132.385756,110.684304 133.323302,110.294817 134.098439,109.513361 C134.871115,108.734386 135.257453,107.786716 135.257453,106.72989 L135.257453,66.9153396 C135.257453,65.8585138 134.871115,64.9108436 134.098439,64.1318687 C133.323302,63.3528937 132.385756,62.9634063 131.335015,62.9634063 L127.35844,62.9634063 L127.35844,59.9566622 C127.35844,58.6195046 126.861369,57.4510422 125.923822,56.4487942 C124.929679,55.501124 123.768204,55 122.44432,55 L120.456033,55 C119.129688,55 117.970674,55.501124 116.97653,56.4487942 C116.036523,57.4510422 115.539451,58.6195046 115.539451,59.9566622 L115.539451,62.9634063 L103.720462,62.9634063 L103.720462,59.9566622 C103.720462,58.6195046 103.22339,57.4510422 102.283383,56.4487942 C101.28924,55.501124 100.130226,55 98.8038807,55 L96.8155935,55 C95.4892485,55 94.3302346,55.501124 93.336091,56.4487942 C92.3960839,57.4510422 91.8990121,58.6195046 91.8990121,59.9566622 L91.8990121,62.9634063 L87.9790351,62.9634063 C86.8741577,62.9634063 85.9341506,63.3528937 85.1614747,64.1318687 C84.3887987,64.9108436 84,65.8585138 84,66.9153396 L84,106.72989 C84,107.786716 84.3887987,108.734386 85.1614747,109.513361 L85.1614747,109.513361 Z M87.9224378,97.7642359 L96.8155935,97.7642359 L96.8155935,106.72989 L87.9224378,106.72989 L87.9224378,97.7642359 Z M87.9224378,85.7918375 L96.8155935,85.7918375 L96.8155935,95.7597398 L87.9224378,95.7597398 L87.9224378,85.7918375 Z M87.9224378,74.8787459 L96.8155935,74.8787459 L96.8155935,83.7873415 L87.9224378,83.7873415 L87.9224378,74.8787459 Z M95.8214499,59.9566622 C95.8214499,59.6763305 95.9321838,59.4555382 96.0970541,59.2322651 C96.3185217,59.0660507 96.5399894,58.9544142 96.8155935,58.9544142 L98.8038807,58.9544142 C99.0794849,58.9544142 99.3009525,59.0660507 99.5224201,59.2322651 C99.6872905,59.4555382 99.7980243,59.6763305 99.7980243,59.9566622 L99.7980243,68.9198357 C99.7980243,69.2001674 99.6872905,69.4209597 99.5224201,69.6442328 C99.3009525,69.812928 99.0794849,69.9220837 98.8038807,69.9220837 L96.8155935,69.9220837 C96.5399894,69.9220837 96.3185217,69.812928 96.0970541,69.6442328 C95.9321838,69.4209597 95.8214499,69.2001674 95.8214499,68.9198357 L95.8214499,59.9566622 L95.8214499,59.9566622 Z M98.8038807,97.7642359 L108.634583,97.7642359 L108.634583,106.72989 L98.8038807,106.72989 L98.8038807,97.7642359 Z M98.8038807,85.7918375 L108.634583,85.7918375 L108.634583,95.7597398 L98.8038807,95.7597398 L98.8038807,85.7918375 Z M98.8038807,74.8787459 L108.634583,74.8787459 L108.634583,83.7873415 L98.8038807,83.7873415 L98.8038807,74.8787459 Z M110.62287,97.7642359 L120.510169,97.7642359 L120.510169,106.72989 L110.62287,106.72989 L110.62287,97.7642359 Z M110.62287,85.7918375 L120.510169,85.7918375 L120.510169,95.7597398 L110.62287,95.7597398 L110.62287,85.7918375 Z M110.62287,74.8787459 L120.510169,74.8787459 L120.510169,83.7873415 L110.62287,83.7873415 L110.62287,74.8787459 Z M119.461889,59.9566622 C119.461889,59.6763305 119.570162,59.4555382 119.737493,59.2322651 C119.958961,59.0660507 120.177968,58.9544142 120.456033,58.9544142 L122.44432,58.9544142 C122.719924,58.9544142 122.941392,59.0660507 123.160399,59.2322651 C123.32773,59.4555382 123.438463,59.6763305 123.438463,59.9566622 L123.438463,68.9198357 C123.438463,69.2001674 123.32773,69.4209597 123.160399,69.6442328 C122.941392,69.812928 122.719924,69.9220837 122.44432,69.9220837 L120.456033,69.9220837 C120.177968,69.9220837 119.958961,69.812928 119.737493,69.6442328 C119.570162,69.4209597 119.461889,69.2001674 119.461889,68.9198357 L119.461889,59.9566622 L119.461889,59.9566622 Z M122.498456,97.7642359 L131.335015,97.7642359 L131.335015,106.72989 L122.498456,106.72989 L122.498456,97.7642359 Z M122.498456,85.7918375 L131.335015,85.7918375 L131.335015,95.7597398 L122.498456,95.7597398 L122.498456,85.7918375 Z M122.498456,74.8787459 L131.335015,74.8787459 L131.335015,83.7873415 L122.498456,83.7873415 L122.498456,74.8787459 Z" id="calendar"></path>
                </g>
            </g>
        </g>
    </g>
</svg>