<?xml version="1.0" encoding="UTF-8" standalone="no"?>
<svg width="52px" height="59px" viewBox="0 0 52 59" version="1.1" xmlns="http://www.w3.org/2000/svg" xmlns:xlink="http://www.w3.org/1999/xlink" xmlns:sketch="http://www.bohemiancoding.com/sketch/ns">
    <!-- Generator: Sketch 3.4 (15575) - http://www.bohemiancoding.com/sketch -->
    <title>code-sheet</title>
    <desc>Created with Sketch.</desc>
    <defs></defs>
    <g id="Public" stroke="none" stroke-width="1" fill="none" fill-rule="evenodd" sketch:type="MSPage">
        <g id="Onboarding" sketch:type="MSArtboardGroup" transform="translate(-687.000000, -656.000000)" fill="#FFFFFF">
            <g id="Interested-in?" sketch:type="MSLayerGroup" transform="translate(361.000000, 298.000000)">
                <g id="Option:-Organization" transform="translate(239.000000, 298.000000)" sketch:type="MSShapeGroup">
                    <path d="M88.6026316,117.975652 C89.1947368,118.617391 89.9605263,118.912174 90.8473684,118.912174 L135.089474,118.912174 C135.976316,118.912174 136.742105,118.617391 137.334211,117.975652 C137.984211,117.388696 138.278947,116.626957 138.278947,115.750435 L138.278947,78.1591304 C138.278947,77.28 138.042105,76.2834783 137.628947,75.2295652 C137.155263,74.2356522 136.623684,73.3565217 136.034211,72.7695652 L125.757895,62.5826087 C125.165789,61.9956522 124.278947,61.4686957 123.276316,61.0017391 C122.213158,60.5921739 121.207895,60.3573913 120.321053,60.3573913 L90.8473684,60.3573913 C89.9605263,60.3573913 89.1947368,60.6495652 88.6026316,61.293913 C87.9526316,61.8808696 87.6578947,62.64 87.6578947,63.5191304 L87.6578947,115.750435 C87.6578947,116.626957 87.9526316,117.388696 88.6026316,117.975652 L88.6026316,117.975652 Z M91.8526316,64.5156522 L117.192105,64.5156522 L117.192105,78.0991304 C117.192105,78.9782609 117.486842,79.74 118.136842,80.3243478 C118.726316,80.9686957 119.494737,81.2608696 120.381579,81.2608696 L134.084211,81.2608696 L134.084211,114.753913 L91.8526316,114.753913 L91.8526316,64.5156522 L91.8526316,64.5156522 Z M103.486842,106.38 C103.665789,106.614783 103.902632,106.732174 104.136842,106.789565 C104.434211,106.849565 104.728947,106.732174 104.965789,106.557391 L106.618421,105.326087 C106.855263,105.151304 107.031579,104.916522 107.031579,104.624348 C107.092105,104.389565 107.031579,104.097391 106.855263,103.862609 L100.828947,95.9008696 L106.855263,87.9365217 C107.031579,87.7017391 107.092105,87.4669565 107.031579,87.1747826 C107.031579,86.8826087 106.855263,86.6478261 106.618421,86.4730435 L104.965789,85.2443478 C104.728947,85.0669565 104.434211,85.0095652 104.136842,85.0669565 C103.902632,85.0669565 103.665789,85.1843478 103.486842,85.4191304 L95.9868421,95.313913 C95.6921053,95.7234783 95.6921053,96.1330435 95.9868421,96.5426087 L103.486842,106.38 L103.486842,106.38 Z M108.805263,109.951304 C108.981579,110.186087 109.218421,110.303478 109.452632,110.363478 L111.521053,110.713043 C111.815789,110.713043 112.110526,110.655652 112.347368,110.538261 C112.584211,110.363478 112.702632,110.128696 112.760526,109.836522 L117.310526,82.6669565 C117.368421,82.3747826 117.310526,82.14 117.131579,81.9052174 C116.955263,81.6704348 116.718421,81.4956522 116.423684,81.4356522 L114.355263,81.1434783 C114.121053,81.086087 113.823684,81.1434783 113.589474,81.3208696 C113.352632,81.4956522 113.234211,81.6704348 113.173684,81.9626087 L108.626316,109.132174 C108.568421,109.424348 108.626316,109.65913 108.805263,109.951304 L108.805263,109.951304 Z M119.318421,105.326087 L120.971053,106.557391 C121.207895,106.732174 121.502632,106.849565 121.739474,106.789565 C122.034211,106.732174 122.271053,106.614783 122.447368,106.38 L129.892105,96.5426087 C130.244737,96.1330435 130.244737,95.7234783 129.892105,95.313913 L122.447368,85.4191304 C122.271053,85.1843478 122.034211,85.0669565 121.739474,85.0669565 C121.502632,85.0095652 121.207895,85.0669565 120.971053,85.2443478 L119.318421,86.4730435 C119.023684,86.6478261 118.905263,86.8826087 118.905263,87.1747826 C118.844737,87.4669565 118.905263,87.7017391 119.081579,87.9365217 L125.107895,95.9008696 L119.081579,103.862609 C118.905263,104.097391 118.844737,104.389565 118.905263,104.624348 C118.905263,104.916522 119.023684,105.151304 119.318421,105.326087 L119.318421,105.326087 Z M121.384211,64.7478261 C122.034211,64.9826087 122.447368,65.2173913 122.744737,65.5095652 L133.081579,75.7565217 C133.376316,76.0486957 133.613158,76.4608696 133.85,77.1026087 L121.384211,77.1026087 L121.384211,64.7478261 L121.384211,64.7478261 Z" id="code-sheet"></path>
                </g>
            </g>
        </g>
    </g>
</svg>