<?xml version="1.0" encoding="UTF-8" standalone="no"?>
<svg width="18px" height="17px" viewBox="0 0 18 17" version="1.1" xmlns="http://www.w3.org/2000/svg" xmlns:xlink="http://www.w3.org/1999/xlink" xmlns:sketch="http://www.bohemiancoding.com/sketch/ns">
    <!-- Generator: Sketch 3.3.3 (12072) - http://www.bohemiancoding.com/sketch -->
    <title>event</title>
    <desc>Created with Sketch.</desc>
    <defs></defs>
    <g id="Public" stroke="none" stroke-width="1" fill="none" fill-rule="evenodd" sketch:type="MSPage">
        <g id="Search" sketch:type="MSArtboardGroup" transform="translate(-859.000000, -468.000000)" fill="#FFFFFF">
            <g id="Pins" sketch:type="MSLayerGroup" transform="translate(624.000000, 276.000000)">
                <g id="Gov-Copy-5" transform="translate(229.000000, 187.000000)" sketch:type="MSShapeGroup">
                    <path d="M9.17269861,9.06601513 C8.93688525,9.06601513 8.74394704,8.87307692 8.74394704,8.63726356 L8.74394704,5.63600252 C8.74394704,5.40018916 8.93688525,5.20725095 9.17269861,5.20725095 C9.40851198,5.20725095 9.60145019,5.40018916 9.60145019,5.63600252 L9.60145019,8.63726356 C9.60145019,8.87307692 9.40851198,9.06601513 9.17269861,9.06601513 Z M10.5447037,9.06601513 C10.3088903,9.06601513 10.1159521,8.87307692 10.1159521,8.63726356 L10.1159521,5.63600252 C10.1159521,5.40018916 10.3088903,5.20725095 10.5447037,5.20725095 C10.780517,5.20725095 10.9734552,5.40018916 10.9734552,5.63600252 L10.9734552,8.63726356 C10.9734552,8.87307692 10.780517,9.06601513 10.5447037,9.06601513 Z M18.7552963,9.06601513 C18.519483,9.06601513 18.3265448,8.87307692 18.3265448,8.63726356 L18.3265448,5.63600252 C18.3265448,5.40018916 18.519483,5.20725095 18.7552963,5.20725095 C18.9911097,5.20725095 19.1840479,5.40018916 19.1840479,5.63600252 L19.1840479,8.63726356 C19.1840479,8.87307692 18.9911097,9.06601513 18.7552963,9.06601513 Z M20.1058638,9.06601513 C19.8700504,9.06601513 19.6771122,8.87307692 19.6771122,8.63726356 L19.6771122,5.63600252 C19.6771122,5.40018916 19.8700504,5.20725095 20.1058638,5.20725095 C20.3416772,5.20725095 20.5346154,5.40018916 20.5346154,5.63600252 L20.5346154,8.63726356 C20.5346154,8.87307692 20.3416772,9.06601513 20.1058638,9.06601513 Z M11.5093947,6.7721942 L17.7691677,6.7721942 L17.7691677,7.62969735 L11.5093947,7.62969735 L11.5093947,6.7721942 Z M21.6922446,6.7721942 L21.0705549,6.7721942 L21.0705549,7.62969735 L21.6922446,7.62969735 C22.0352459,7.62969735 22.2924968,7.90838588 22.2924968,8.22994956 L22.2924968,20.2349937 C22.2924968,20.577995 22.0138083,20.8352459 21.6922446,20.8352459 L7.60775536,20.8352459 C7.2647541,20.8352459 7.00750315,20.5565574 7.00750315,20.2349937 L7.00750315,8.22994956 C7.00750315,7.8869483 7.28619168,7.62969735 7.60775536,7.62969735 L8.22944515,7.62969735 L8.22944515,6.7721942 L7.60775536,6.7721942 C6.79312736,6.7721942 6.15,7.43675914 6.15,8.22994956 L6.15,20.2349937 C6.15,21.0496217 6.81456494,21.6927491 7.60775536,21.6927491 L21.6922446,21.6927491 C22.5068726,21.6927491 23.15,21.0281841 23.15,20.2349937 L23.15,8.22994956 C23.15,7.41532156 22.4854351,6.7721942 21.6922446,6.7721942 Z M12.1525221,18.1769861 C11.9167087,18.1769861 11.7237705,17.9840479 11.7237705,17.7482346 L11.7237705,12.1959016 L10.5447037,12.7747163 C10.3303279,12.8819042 10.0730769,12.7961538 9.96588903,12.5817781 C9.85870113,12.3674023 9.94445145,12.1101513 10.1588272,12.0029634 L11.9381463,11.1240227 C12.0667718,11.05971 12.2382724,11.05971 12.3454603,11.1454603 C12.4740858,11.2312106 12.5383985,11.3598361 12.5383985,11.5098991 L12.5383985,17.7482346 C12.5812736,17.9840479 12.3883354,18.1769861 12.1525221,18.1769861 Z M18.5837957,18.1769861 L15.0680328,18.1769861 C14.8965322,18.1769861 14.7250315,18.0697982 14.6607188,17.8982976 C14.5964061,17.726797 14.6392812,17.5338588 14.7893443,17.4266709 C15.8397856,16.5262926 18.6266709,13.7179697 17.7262926,12.3030895 C17.2117907,11.5098991 16.3114124,11.7885876 16.0541614,11.8957755 C15.7111602,12.024401 15.5610971,12.3888398 15.5610971,12.3888398 C15.4539092,12.6032156 15.2180958,12.7104035 15.0037201,12.6032156 C14.7893443,12.5174653 14.6821564,12.2602144 14.7893443,12.0458386 C14.8107818,11.9815259 15.1109079,11.3598361 15.7540353,11.1025851 C16.5901009,10.7810214 17.7906053,10.7810214 18.4766078,11.8529004 C19.5913619,13.5893443 17.4690416,16.0761034 16.2042245,17.319483 L18.6052333,17.319483 C18.8410467,17.319483 19.0339849,17.5124212 19.0339849,17.7482346 C19.0339849,17.9840479 18.8196091,18.1769861 18.5837957,18.1769861 Z" id="event"></path>
                </g>
            </g>
        </g>
    </g>
</svg>