<?xml version="1.0" encoding="UTF-8" standalone="no"?>
<svg width="20px" height="12px" viewBox="0 0 20 12" version="1.1" xmlns="http://www.w3.org/2000/svg" xmlns:xlink="http://www.w3.org/1999/xlink" xmlns:sketch="http://www.bohemiancoding.com/sketch/ns">
    <!-- Generator: Sketch 3.3.3 (12072) - http://www.bohemiancoding.com/sketch -->
    <title>foundation</title>
    <desc>Created with Sketch.</desc>
    <defs></defs>
    <g id="Public" stroke="none" stroke-width="1" fill="none" fill-rule="evenodd" sketch:type="MSPage">
        <g id="Search" sketch:type="MSArtboardGroup" transform="translate(-776.000000, -470.000000)" fill="#FFFFFF">
            <g id="Pins" sketch:type="MSLayerGroup" transform="translate(624.000000, 276.000000)">
                <g id="Gov-Copy-3" transform="translate(148.000000, 187.000000)" sketch:type="MSShapeGroup">
                    <path d="M20.3773769,16.4575435 C20.1244233,16.1624309 19.6185159,15.8883977 18.9018138,15.677603 C17.3840918,15.2138546 15.7398929,14.6447088 15.7398929,13.6118147 L15.7398929,13.1902252 L15.7398929,13.1691458 C15.7398929,12.6632384 15.8874493,12.3259669 15.9717671,12.19949 C16.0139261,12.1362516 16.0350056,12.1151721 16.0350056,12.0940927 C16.5198334,11.9465363 16.7306282,11.2930727 16.6673897,10.8925627 C16.6463103,10.7028475 16.5619924,10.5974501 16.4776745,10.5552912 C16.4776745,10.4288143 16.5198334,10.2390991 16.5198334,10.0915428 C16.5409129,9.9018275 16.5830719,9.69103278 16.5830719,9.50131752 L16.5830719,9.33268174 C16.5619924,8.95325123 16.4776745,8.61597967 16.2879592,8.34194653 C15.8452903,7.49876762 15.0021114,6.99286028 14.0535351,6.99286028 C13.1049589,6.99286028 12.26178,7.51984709 11.819111,8.34194653 C11.6504753,8.63705914 11.5450779,8.97433071 11.5239984,9.33268174 L11.5239984,9.52239699 C11.5239984,9.71211225 11.5661574,9.9018275 11.5872368,10.1126222 C11.6083163,10.2601785 11.6293958,10.4498938 11.6293958,10.5763706 C11.5450779,10.639609 11.46076,10.7450064 11.4396805,10.9136422 C11.3764421,11.3141522 11.5872368,11.9676158 12.0720647,12.1151721 C12.0720647,12.1151721 12.0931442,12.1573311 12.1353031,12.19949 C12.219621,12.3470463 12.3671773,12.6632384 12.3671773,13.1691458 L12.3671773,13.2113047 L12.3671773,13.6328942 C12.3671773,14.6657883 10.7440579,15.2349341 9.20525643,15.6986825 C8.46747489,15.9094772 7.98264702,16.1835103 7.72969335,16.478623 C7.53997809,16.7104972 7.53997809,16.9002124 7.53997809,16.9845303 L7.53997809,18.1017424 C7.53997809,18.1439013 7.56105757,18.2071397 7.66645493,18.2071397 L20.4195359,18.2071397 C20.5249332,18.2071397 20.5249332,18.1017424 20.5249332,18.1017424 L20.5249332,16.9845303 C20.5670922,16.8791329 20.5670922,16.6683382 20.3773769,16.4575435 Z M22.5696421,15.8040798 C21.45243,15.4668083 20.3141385,15.0662983 20.3141385,14.2441989 L20.3141385,13.9490862 C20.2719796,13.4642584 20.3773769,13.2956226 20.5038538,13.1902252 C20.5670922,13.1269868 20.5881717,13.0637484 20.6303306,13.0637484 C20.9676022,12.958351 21.0308406,12.3048874 20.8622048,12.3048874 C20.7568074,12.3048874 20.8832843,11.79898 20.9043637,11.4617085 L20.9043637,11.3563111 C20.9043637,11.2298343 20.8622048,10.9768806 20.735728,10.7660859 C20.4827743,10.281258 19.9768669,9.94398645 19.3655622,9.94398645 C18.7542575,9.94398645 18.2694297,10.281258 17.9953965,10.7660859 C17.8478402,10.9979601 17.8267607,11.2298343 17.8267607,11.3563111 L17.8267607,11.4617085 C17.8478402,11.79898 17.974317,12.3048874 17.8689197,12.3048874 C17.6792044,12.3048874 17.7635223,12.958351 18.1007939,13.0637484 C18.1429528,13.0848279 18.1851118,13.1059073 18.2272707,13.1902252 C18.3326681,13.358861 18.416986,13.6118147 18.416986,13.9490862 L18.416986,14.2441989 C18.416986,14.4128346 18.374827,14.5393115 18.2905091,14.6868678 C18.2483502,14.7711857 18.3115886,14.7922652 18.3115886,14.7922652 L19.7871517,15.2981725 L19.8925491,15.3403314 C20.0611848,15.4035699 20.3984564,15.5511262 20.693569,15.8040798 C20.7146485,15.8251593 20.7146485,15.8251593 20.735728,15.8462388 C20.735728,15.8462388 20.735728,15.8462388 20.7568074,15.8673183 C20.7778869,15.8883977 20.8200459,15.9305567 20.8411253,15.9516361 L20.8622048,15.9727156 C21.0519201,16.1835103 21.2205558,16.478623 21.2205558,16.8580535 L21.2205558,17.1320866 C21.2205558,17.1531661 21.2205558,17.195325 21.2837943,17.195325 L23.4971389,17.195325 C23.5603773,17.195325 23.5603773,17.1531661 23.5603773,17.1320866 L23.5603773,16.5207819 C23.5814568,16.4997024 23.6236157,16.1413514 22.5696421,15.8040798 Z M5.57958714,15.8040798 C6.69679919,15.4668083 7.83509071,15.0662983 7.83509071,14.2441989 L7.83509071,13.9490862 C7.87724965,13.4642584 7.77185229,13.2956226 7.64537546,13.1902252 C7.58213704,13.1269868 7.56105757,13.0637484 7.51889862,13.0637484 C7.18162706,12.958351 7.11838864,12.3048874 7.28702442,12.3048874 C7.39242178,12.3048874 7.26594495,11.79898 7.24486548,11.4617085 L7.24486548,11.3563111 C7.24486548,11.2298343 7.28702442,10.9768806 7.41350126,10.7660859 C7.66645493,10.281258 8.17236227,9.94398645 8.78366698,9.94398645 C9.39497168,9.94398645 9.87979956,10.281258 10.1538327,10.7660859 C10.301389,10.9979601 10.3224685,11.2298343 10.3224685,11.3563111 L10.3224685,11.4617085 C10.301389,11.79898 10.1749122,12.3048874 10.2803095,12.3048874 C10.4700248,12.3048874 10.3857069,12.958351 10.0484353,13.0637484 C10.0062764,13.0848279 9.96411745,13.1059073 9.9219585,13.1902252 C9.81656114,13.358861 9.73224325,13.6118147 9.73224325,13.9490862 L9.73224325,14.2441989 C9.73224325,14.4128346 9.77440219,14.5393115 9.85872008,14.6868678 C9.90087903,14.7711857 9.83764061,14.7922652 9.83764061,14.7922652 L8.36207753,15.2981725 L8.25668016,15.319252 C8.08804438,15.3824904 7.75077282,15.5300467 7.4556602,15.7830004 C7.43458073,15.8040798 7.43458073,15.8040798 7.41350126,15.8251593 C7.41350126,15.8251593 7.41350126,15.8251593 7.39242178,15.8462388 C7.37134231,15.8673183 7.32918337,15.9094772 7.30810389,15.9305567 L7.28702442,15.9516361 C7.09730917,16.1624309 6.92867339,16.4575435 6.92867339,16.836974 L6.92867339,17.1110071 C6.92867339,17.1320866 6.92867339,17.1742456 6.86543497,17.1742456 L4.63101087,17.1742456 C4.56777245,17.1742456 4.56777245,17.1320866 4.56777245,17.1110071 L4.56777245,16.4997024 C4.56777245,16.4997024 4.52561351,16.1413514 5.57958714,15.8040798 Z" id="foundation"></path>
                </g>
            </g>
        </g>
    </g>
</svg>