<?xml version="1.0" encoding="UTF-8" standalone="no"?>
<svg width="13px" height="16px" viewBox="0 0 13 16" version="1.1" xmlns="http://www.w3.org/2000/svg" xmlns:xlink="http://www.w3.org/1999/xlink" xmlns:sketch="http://www.bohemiancoding.com/sketch/ns">
    <!-- Generator: Sketch 3.3.3 (12072) - http://www.bohemiancoding.com/sketch -->
    <title>govoffice</title>
    <desc>Created with Sketch.</desc>
    <defs></defs>
    <g id="Public" stroke="none" stroke-width="1" fill="none" fill-rule="evenodd" sketch:type="MSPage">
        <g id="Search" sketch:type="MSArtboardGroup" transform="translate(-656.000000, -473.000000)" fill="#FFFFFF">
            <g id="Pins" sketch:type="MSLayerGroup" transform="translate(624.000000, 276.000000)">
                <path d="M42.894126,206.016437 L44.908,206.016437 L41.6574787,203.802218 L38.629196,201.737259 L38.629196,200.386625 C38.7631647,200.447615 38.9195483,200.513991 39.1252797,200.591314 C40.0880818,200.952039 42.0878813,200.358302 42.0878813,200.358302 L41.9540864,198.166325 C41.9540864,198.166325 41.4552225,198.361283 40.4232641,198.460847 C39.3920007,198.560933 38.060307,197.861724 38.060307,197.861724 L38.060307,198.429571 L38.060307,200.013563 L38.060307,201.824139 L35.1578262,203.802218 L31.908,206.016437 L33.9130123,206.016437 L33.9130123,211.307418 L32.756642,211.307418 L32.756642,212.945276 L43.8730877,212.945276 L43.8730877,211.307418 L42.894126,211.307418 L42.894126,206.016437 L42.894126,206.016437 Z M41.3344596,211.307418 L40.4201364,211.307418 L40.4201364,206.016437 L41.3344596,206.016437 L41.3344596,211.307418 L41.3344596,211.307418 Z M38.8606438,211.307418 L37.9463207,211.307418 L37.9463207,206.016437 L38.4081738,206.016437 L38.8606438,206.016437 L38.8606438,211.307418 L38.8606438,211.307418 Z M35.4723312,206.016437 L36.3866543,206.016437 L36.3866543,211.307418 L35.4723312,211.307418 L35.4723312,206.016437 L35.4723312,206.016437 Z" id="govoffice" sketch:type="MSShapeGroup"></path>
            </g>
        </g>
    </g>
</svg>