<?xml version="1.0" encoding="UTF-8" standalone="no"?>
<svg width="16px" height="20px" viewBox="0 0 16 20" version="1.1" xmlns="http://www.w3.org/2000/svg" xmlns:xlink="http://www.w3.org/1999/xlink" xmlns:sketch="http://www.bohemiancoding.com/sketch/ns">
    <!-- Generator: Sketch 3.3.3 (12072) - http://www.bohemiancoding.com/sketch -->
    <title>incubator</title>
    <desc>Created with Sketch.</desc>
    <defs></defs>
    <g id="Public" stroke="none" stroke-width="1" fill="none" fill-rule="evenodd" sketch:type="MSPage">
        <g id="Search" sketch:type="MSArtboardGroup" transform="translate(-694.000000, -467.000000)" fill="#FFFFFF">
            <g id="Pins" sketch:type="MSLayerGroup" transform="translate(624.000000, 276.000000)">
                <g id="Gov-Copy" transform="translate(64.000000, 187.000000)" sketch:type="MSShapeGroup">
                    <path d="M21.7131075,13.2563329 L21.7131075,10.663074 C21.7131075,10.6628777 21.7129112,10.6624852 21.7129112,10.6622889 C21.7129112,10.6393258 21.7111448,10.616559 21.7082008,10.5937922 C21.707612,10.5894743 21.706827,10.5853527 21.7060419,10.5812312 C21.7029017,10.5618009 21.6991726,10.5427631 21.6938734,10.5237253 C21.6926958,10.5201925 21.6919108,10.516856 21.6909294,10.5137158 C21.6846489,10.4927153 21.6773871,10.4719112 21.6679664,10.4514995 C21.6662,10.4471817 21.664041,10.4432564 21.6618821,10.4389385 C21.657368,10.428929 21.6528539,10.4187232 21.6473585,10.4089099 C21.6442182,10.4034144 21.6406854,10.3985078 21.6371526,10.3930123 C21.6342087,10.3875169 21.6308721,10.3822177 21.6271431,10.3767223 C21.6161522,10.3604322 21.6051613,10.3443384 21.5927966,10.3296185 C21.5914227,10.3278521 21.5900489,10.326282 21.588675,10.3245156 C21.5739551,10.3074405 21.5588426,10.2917392 21.5425526,10.276823 C21.5388235,10.2734865 21.5352907,10.2705425 21.5313654,10.2674023 C21.5176268,10.2552338 21.5031032,10.2440467 21.4877944,10.2334483 C21.4838691,10.2307006 21.4803363,10.2281491 21.476411,10.2255977 C21.4583546,10.2136255 21.4395131,10.2026346 21.4198865,10.1932138 C21.4181201,10.1924288 21.4169425,10.1912512 21.4155686,10.1906624 L17.9524601,8.52731043 C17.749325,8.8234754 17.4908431,9.09177064 17.1893789,9.32434551 L20.0470078,10.6968317 L15.0080818,13.4908704 C15.2388902,11.9003331 15.0752046,10.4240223 14.9350709,9.59460341 C16.5654502,9.14142586 17.9718904,7.81054803 18.1455855,6.11226078 C15.8838194,5.95093036 15.1694122,6.42098675 14.5974939,8.54203036 C14.5974939,4.30013941 10.6666841,4.09307908 10.6666841,4.09307908 C9.84295687,6.95247432 11.2482194,8.76145543 13.4746577,9.54573324 C13.4746577,9.54573324 13.6430537,9.58694904 13.8732734,9.61894035 C14.0136034,10.3932086 14.2279255,12.0538128 13.8989842,13.7575955 L8.37881461,10.6964391 L11.3630349,9.26311061 C11.0700101,9.02543282 10.8219303,8.75203468 10.6286085,8.4525332 L7.01025377,10.1902699 C7.00907617,10.1906624 7.00809484,10.1916437 7.00672098,10.1922325 C6.98670188,10.2020458 6.96727157,10.2132329 6.94843006,10.2254014 C6.94528981,10.2275603 6.94234583,10.2297193 6.93920558,10.2318782 C6.92350432,10.2430653 6.90839186,10.2548413 6.89386819,10.2675986 C6.89053168,10.2705425 6.88699889,10.2732903 6.88385864,10.2762342 C6.86756859,10.2911504 6.85186733,10.307048 6.83734367,10.3243193 C6.83596981,10.3260857 6.83479221,10.3276559 6.83341835,10.3294223 C6.82124988,10.3441422 6.8096702,10.3600397 6.79907185,10.3763298 C6.79553907,10.3818252 6.79200629,10.3875169 6.78866977,10.3930123 C6.78533325,10.3983115 6.78180047,10.4032182 6.77885648,10.4087136 C6.77375358,10.4183306 6.76923946,10.4283402 6.76452909,10.4379572 C6.76237016,10.4424713 6.76001498,10.4469854 6.75785605,10.4516958 C6.74902409,10.4719112 6.74136973,10.4925191 6.73528549,10.513127 C6.73430417,10.516856 6.73332284,10.5205851 6.73234151,10.5243141 C6.7272386,10.5429594 6.72331329,10.5616046 6.72017303,10.5802498 C6.71958424,10.584764 6.71879917,10.5894743 6.71821038,10.5941847 C6.71526639,10.616559 6.7135,10.6393258 6.7135,10.6618964 L6.7135,10.663074 L6.7135,13.2569217 L6.7135,13.2594732 L6.7135,19.2809054 C6.7135,19.4716756 6.81693203,19.6469409 6.98336536,19.7395783 L13.9590415,23.6077794 C13.959434,23.6079756 13.9598266,23.6081719 13.9602191,23.6083682 C13.9782755,23.618574 13.997117,23.6274059 14.0167436,23.6352566 C14.0202764,23.6366304 14.0240054,23.6380043 14.0275382,23.6393782 C14.042847,23.6448736 14.0587445,23.6501728 14.0748383,23.6546869 C14.0801374,23.656257 14.0854366,23.6576309 14.0909321,23.6588085 C14.1058483,23.6625375 14.121157,23.6652852 14.136662,23.6676404 C14.1419611,23.6684255 14.1470641,23.6694068 14.152167,23.6699956 C14.1723823,23.6723508 14.1924014,23.6739209 14.2132056,23.6739209 C14.2340098,23.6739209 14.2542251,23.6723508 14.2742442,23.6699956 C14.2793471,23.6694068 14.2844501,23.6684255 14.2897492,23.6676404 C14.3052542,23.6652852 14.3207592,23.6625375 14.3356754,23.6588085 C14.3409746,23.6576309 14.3462738,23.656257 14.3515729,23.6546869 C14.367863,23.6501728 14.3835642,23.6448736 14.3990692,23.6393782 C14.4027983,23.6380043 14.4063311,23.6366304 14.4098639,23.6352566 C14.4294904,23.6274059 14.4483319,23.618574 14.4665846,23.6083682 C14.4667809,23.6081719 14.4673697,23.6079756 14.4677622,23.6077794 L21.4434384,19.7395783 C21.610068,19.6469409 21.7135,19.4716756 21.7135,19.2809054 L21.7135,13.2606507 C21.7131075,13.2592769 21.7131075,13.257903 21.7131075,13.2563329 L21.7131075,13.2563329 Z M7.7617552,11.5533353 L13.6887836,14.8401972 L13.6887836,16.2411419 L7.7617552,12.95428 L7.7617552,11.5533353 L7.7617552,11.5533353 Z M14.7374313,14.840001 L20.6642635,11.553139 L20.6642635,12.9540837 L14.7374313,16.2409457 L14.7374313,14.840001 L14.7374313,14.840001 Z M7.7617552,14.153071 L13.6887836,17.4401292 L13.6887836,22.2590414 L7.7617552,18.9723757 L7.7617552,14.153071 L7.7617552,14.153071 Z M14.7374313,22.2590414 L14.7374313,17.4401292 L20.6642635,14.153071 L20.6642635,18.9723757 L14.7374313,22.2590414 Z M13.7088027,12.0102419 C13.185362,9.92413355 11.326922,10.4159754 11.326922,10.4159754 C11.326922,10.4159754 11.3271182,12.133693 13.7088027,12.0102419 Z" id="incubator"></path>
                </g>
            </g>
        </g>
    </g>
</svg>