<?xml version="1.0" encoding="UTF-8" standalone="no"?>
<svg width="12px" height="12px" viewBox="0 0 12 12" version="1.1" xmlns="http://www.w3.org/2000/svg" xmlns:xlink="http://www.w3.org/1999/xlink" xmlns:sketch="http://www.bohemiancoding.com/sketch/ns">
    <!-- Generator: Sketch 3.3.3 (12072) - http://www.bohemiancoding.com/sketch -->
    <title>info</title>
    <desc>Created with Sketch.</desc>
    <defs></defs>
    <g id="Public" stroke="none" stroke-width="1" fill="none" fill-rule="evenodd" sketch:type="MSPage">
        <g id="Search" sketch:type="MSArtboardGroup" transform="translate(-318.000000, -354.000000)" fill="#9B9B9B">
            <g id="Results" sketch:type="MSLayerGroup" transform="translate(60.000000, 144.000000)">
                <g id="Result" transform="translate(0.000000, 99.000000)" sketch:type="MSShapeGroup">
                    <g id="Actions" transform="translate(0.000000, 100.000000)">
                        <path d="M264,11 C260.686282,11 258,13.6861942 258,16.9999417 C258,20.3136019 260.686282,22.9998835 264,22.9998835 C267.313689,22.9998835 270,20.3136019 270,16.9999417 C270,13.6861942 267.313689,11 264,11 L264,11 Z M263.883175,20.5221748 C263.018301,20.8261359 262.305262,20.4775825 262.448301,19.6469612 C262.591398,18.8161942 263.412087,17.0375728 263.529175,16.7012816 C263.646175,16.3649612 263.421786,16.2727767 263.18132,16.4095825 C263.042592,16.4896505 262.836466,16.6499903 262.659495,16.8058738 C262.610417,16.7070485 262.541388,16.5941262 262.489602,16.4859806 C262.778388,16.1965825 263.261097,15.8086214 263.832553,15.6680291 C264.515301,15.4994757 265.656553,15.7688932 265.166039,17.0739806 C264.815825,18.0041845 264.568107,18.6460971 264.412019,19.1241165 C264.256019,19.6023107 264.44132,19.7025922 264.714408,19.5162718 C264.927757,19.3706117 265.155058,19.172466 265.32166,19.0188252 C265.398728,19.1440971 265.423427,19.1840291 265.499621,19.3279709 C265.210456,19.6243592 264.453903,20.3181165 263.883175,20.5221748 L263.883175,20.5221748 Z M265.675223,14.7680583 C265.282922,15.101932 264.701447,15.0947379 264.376165,14.7517184 C264.050942,14.4089029 264.105233,13.8602816 264.497417,13.5263204 C264.889689,13.1924466 265.471252,13.1996699 265.796447,13.5424272 C266.121641,13.8853592 266.067379,14.4339806 265.675223,14.7680583 L265.675223,14.7680583 Z" id="info"></path>
                    </g>
                </g>
            </g>
        </g>
    </g>
</svg>