<?xml version="1.0" encoding="UTF-8" standalone="no"?>
<svg width="13px" height="13px" viewBox="0 0 13 13" version="1.1" xmlns="http://www.w3.org/2000/svg" xmlns:xlink="http://www.w3.org/1999/xlink" xmlns:sketch="http://www.bohemiancoding.com/sketch/ns">
    <!-- Generator: Sketch 3.3.3 (12072) - http://www.bohemiancoding.com/sketch -->
    <title>key-outline</title>
    <desc>Created with Sketch.</desc>
    <defs></defs>
    <g id="Public" stroke="none" stroke-width="1" fill="none" fill-rule="evenodd" sketch:type="MSPage">
        <g id="Search" sketch:type="MSArtboardGroup" transform="translate(-580.000000, -364.000000)" fill="#999899">
            <g id="Overlays" sketch:type="MSLayerGroup" transform="translate(40.000000, 65.000000)">
                <g id="Login" transform="translate(495.000000, 135.000000)" sketch:type="MSShapeGroup">
                    <g id="Form" transform="translate(30.000000, 100.000000)">
                        <g id="Email">
                            <g transform="translate(0.000000, 62.000000)">
                                <path d="M21.5,3.26213592 C24.3947718,3.26213592 26.7378641,5.60475485 26.7378641,8.5 C26.7378641,11.3947403 24.3952451,13.7378641 21.5,13.7378641 C18.6052597,13.7378641 16.2621359,11.3952451 16.2621359,8.5 C16.2621359,5.60522816 18.6047549,3.26213592 21.5,3.26213592 L21.5,3.26213592 L21.5,3.26213592 Z M21.5,2 C17.9101383,2 15,4.91013835 15,8.5 C15,12.0898617 17.9101383,15 21.5,15 C25.0898617,15 28,12.0898617 28,8.5 C28,4.91013835 25.0898617,2 21.5,2 L21.5,2 L21.5,2 Z M22.2044296,9.36140777 L21.5094976,10.0562451 L20.836716,10.0562451 L20.8367791,10.7290583 L20.135284,10.7289951 L20.135284,11.3630291 L18.5772718,11.3630291 L18.5772718,10.2825461 L20.8121044,8.04768204 C21.0641529,8.64842718 21.5631699,9.1346966 22.2044296,9.36140777 L22.2044296,9.36140777 L22.2044296,9.36140777 Z M24.3377864,5.78602913 C25.0811214,6.52942718 25.0810898,7.73454612 24.3377549,8.47791262 C23.5944199,9.22127913 22.3892694,9.22127913 21.6459345,8.47791262 C20.9025364,7.73454612 20.9025364,6.52942718 21.6459345,5.78602913 C22.3892063,5.04272573 23.5944199,5.04272573 24.3377864,5.78602913 L24.3377864,5.78602913 L24.3377864,5.78602913 Z M23.9557063,6.16678398 C23.7713083,5.98241748 23.4724029,5.98241748 23.2880364,6.16678398 C23.1036699,6.35115049 23.1036699,6.65002427 23.2880364,6.83442233 C23.4724029,7.01878883 23.7712767,7.01872573 23.9556748,6.83435922 C24.1400728,6.65002427 24.1400097,6.35111893 23.9557063,6.16678398 L23.9557063,6.16678398 L23.9557063,6.16678398 Z" id="key-outline"></path>
                            </g>
                        </g>
                    </g>
                </g>
            </g>
        </g>
    </g>
</svg>