<?xml version="1.0" encoding="UTF-8" standalone="no"?>
<svg width="49px" height="72px" viewBox="0 0 49 72" version="1.1" xmlns="http://www.w3.org/2000/svg" xmlns:xlink="http://www.w3.org/1999/xlink" xmlns:sketch="http://www.bohemiancoding.com/sketch/ns">
    <!-- Generator: Sketch 3.4 (15575) - http://www.bohemiancoding.com/sketch -->
    <title>lightbulb</title>
    <desc>Created with Sketch.</desc>
    <defs></defs>
    <g id="Public" stroke="none" stroke-width="1" fill="none" fill-rule="evenodd" sketch:type="MSPage">
        <g id="Onboarding" sketch:type="MSArtboardGroup" transform="translate(-566.000000, -515.000000)" fill="#FFFFFF">
            <g id="Who-are-you" sketch:type="MSLayerGroup" transform="translate(480.000000, 396.000000)">
                <g id="Option:-Innovator" transform="translate(0.000000, 71.000000)" sketch:type="MSShapeGroup">
                    <path d="M90.8246154,81.3812105 C92.2606923,82.9768421 93.4442308,84.3183684 94.3752308,85.4917368 C95.3062308,86.6688421 96.2372308,88.1785263 97.1682308,89.9385789 C98.0992308,91.6986316 98.6080769,93.3764737 98.7776923,94.9721053 C97.2549231,95.8091579 96.5764615,97.1506842 96.5764615,98.8285263 C96.5764615,99.9196842 96.9156923,100.924895 97.76,101.765684 C96.9156923,102.602737 96.5764615,103.611684 96.5764615,104.785053 C96.5764615,106.462895 97.2549231,107.718474 98.691,108.559263 C98.2688462,109.314105 98.0992308,110.068947 98.0992308,110.823789 C98.0992308,112.247526 98.5213846,113.338684 99.5390769,114.093526 C100.553,114.934316 101.736538,115.270632 103.176385,115.270632 C103.851077,116.694368 104.782077,117.785526 106.052308,118.540368 C107.322538,119.377421 108.675692,119.799684 110.198462,119.799684 C111.634538,119.799684 112.991462,119.377421 114.257923,118.540368 C115.528154,117.785526 116.459154,116.694368 117.133846,115.270632 C118.573692,115.270632 119.757231,114.934316 120.771154,114.093526 C121.788846,113.338684 122.297692,112.247526 122.297692,110.823789 C122.297692,110.068947 122.041385,109.314105 121.702154,108.559263 C123.059077,107.718474 123.820462,106.462895 123.820462,104.785053 C123.820462,103.611684 123.394538,102.602737 122.633154,101.765684 C123.394538,100.924895 123.820462,99.9196842 123.820462,98.8285263 C123.820462,97.1506842 123.059077,95.8091579 121.532538,94.9721053 C121.702154,93.3764737 122.211,91.6986316 123.142,89.9385789 C124.073,88.1785263 125.086923,86.6688421 125.935,85.4917368 C126.866,84.3183684 128.049538,82.9768421 129.485615,81.3812105 C132.700769,77.9433158 134.310231,73.7505789 134.310231,68.8852105 C134.310231,65.8658421 133.631769,62.9286842 132.195692,60.3315789 C130.838769,57.6447895 128.980538,55.4662105 126.696385,53.7024211 C124.412231,51.9423684 121.871769,50.5186316 118.995846,49.5096842 C116.119923,48.5044737 113.157308,48 110.198462,48 C107.152923,48 104.190308,48.5044737 101.314385,49.5096842 C98.4384615,50.5186316 95.898,51.9423684 93.6138462,53.7024211 C91.3296923,55.4662105 89.4714615,57.6447895 88.1145385,60.3315789 C86.6784615,62.9286842 86,65.8658421 86,68.8852105 C86,73.7505789 87.6094615,77.9433158 90.8246154,81.3812105 L90.8246154,81.3812105 Z M93.6138462,62.6783158 C94.7144615,60.7501053 96.1543077,59.1544737 97.9296154,57.8988947 C99.622,56.6395789 101.566923,55.7165789 103.681462,55.0476842 C105.799769,54.2891053 107.997231,53.9565263 110.198462,53.9565263 C112.313,53.9565263 114.514231,54.2891053 116.628769,55.0476842 C118.743308,55.7165789 120.688231,56.6395789 122.463538,57.8988947 C124.155923,59.1544737 125.595769,60.7501053 126.696385,62.6783158 C127.797,64.6065263 128.302077,66.7066316 128.302077,68.8852105 C128.302077,72.0727368 127.201462,74.8417368 125.086923,77.3566316 C124.747692,77.6929474 124.325538,78.1974211 123.650846,78.8663158 C123.059077,79.5389474 122.550231,80.0396842 122.211,80.376 C118.151538,85.1554211 115.950308,89.7704211 115.528154,94.2994737 L104.782077,94.2994737 C104.359923,89.7704211 102.158692,85.1554211 98.0992308,80.376 C97.76,80.0396842 97.3378462,79.5389474 96.6593846,78.8663158 C95.9846923,78.1974211 95.5625385,77.6929474 95.2233077,77.3566316 C93.1087692,74.8417368 92.0081538,72.0727368 92.0081538,68.8852105 C92.0081538,66.7066316 92.517,64.6065263 93.6138462,62.6783158 L93.6138462,62.6783158 Z M110.281385,64.4383684 C111.890846,64.4383684 113.496538,64.8606316 115.188923,65.6154737 C116.881308,66.3703158 117.725615,67.4577368 117.725615,68.8852105 C117.725615,69.3037368 117.895231,69.6400526 118.151538,69.9763684 C118.487,70.2267368 118.826231,70.3948947 119.248385,70.3948947 C119.674308,70.3948947 120.013538,70.2267368 120.349,69.9763684 C120.605308,69.6400526 120.771154,69.3037368 120.771154,68.8852105 C120.771154,67.2933158 120.179385,65.8658421 118.995846,64.6924737 C117.812308,63.5191053 116.459154,62.6783158 114.936385,62.1775789 C113.413615,61.6731053 111.804154,61.419 110.281385,61.419 C109.859231,61.419 109.52,61.5871579 109.180769,61.8412632 C108.928231,62.1775789 108.758615,62.5101579 108.758615,62.9286842 C108.758615,63.3509474 108.928231,63.6835263 109.180769,64.0198421 C109.52,64.2739474 109.859231,64.4383684 110.281385,64.4383684 L110.281385,64.4383684 Z" id="lightbulb"></path>
                </g>
            </g>
        </g>
    </g>
</svg>