<?xml version="1.0" encoding="UTF-8" standalone="no"?>
<svg width="12px" height="13px" viewBox="0 0 12 13" version="1.1" xmlns="http://www.w3.org/2000/svg" xmlns:xlink="http://www.w3.org/1999/xlink" xmlns:sketch="http://www.bohemiancoding.com/sketch/ns">
    <!-- Generator: Sketch 3.3.3 (12072) - http://www.bohemiancoding.com/sketch -->
    <title>linkedin</title>
    <desc>Created with Sketch.</desc>
    <defs></defs>
    <g id="Public" stroke="none" stroke-width="1" fill="none" fill-rule="evenodd" sketch:type="MSPage">
        <g id="Search" sketch:type="MSArtboardGroup" transform="translate(-111.000000, -247.000000)" fill="#F44336">
            <g id="Details" sketch:type="MSLayerGroup" transform="translate(60.000000, 144.000000)">
                <g id="Head" transform="translate(0.000000, 1.000000)" sketch:type="MSShapeGroup">
                    <g id="LinkedIn" transform="translate(51.000000, 101.000000)">
                        <path d="M2.9300035,2.47692039 C2.9300035,3.29263317 2.27409955,3.95386991 1.46500175,3.95386991 C0.655903952,3.95386991 0,3.29263317 0,2.47692039 C-2.07058729e-16,1.66123674 0.655903952,1 1.46500175,1 C2.27412869,1 2.9300035,1.66123674 2.9300035,2.47692039 L2.9300035,2.47692039 L2.9300035,2.47692039 Z M2.71564285,5.00201072 L0.238168784,5.00201072 L0.238168784,13.0060613 L2.71564285,13.0060613 L2.71564285,5.00201072 L2.71564285,5.00201072 L2.71564285,5.00201072 Z M6.67592377,5.00201072 L4.29974356,5.00201072 L4.29974356,13.0060613 L6.67592377,13.0060613 L6.67592377,8.80449353 C6.67592377,7.67895442 7.19402028,7.00897541 8.1856277,7.00897541 C9.09680615,7.00897541 9.534532,7.65214477 9.534532,8.80449353 L9.534532,13.0060613 L12,13.0060613 L12,7.93801725 C12,5.79409022 10.785144,4.75783891 9.08783075,4.75783891 C7.39051754,4.75783891 6.67589463,6.07993356 6.67589463,6.07993356 L6.67589463,5.00201072 L6.67592377,5.00201072 L6.67592377,5.00201072 Z" id="linkedin"></path>
                    </g>
                </g>
            </g>
        </g>
    </g>
</svg>