<?xml version="1.0" encoding="UTF-8" standalone="no"?>
<svg width="112px" height="14px" viewBox="0 0 112 14" version="1.1" xmlns="http://www.w3.org/2000/svg" xmlns:xlink="http://www.w3.org/1999/xlink" xmlns:sketch="http://www.bohemiancoding.com/sketch/ns">
    <!-- Generator: Sketch 3.3.3 (12072) - http://www.bohemiancoding.com/sketch -->
    <title>logo</title>
    <desc>Created with Sketch.</desc>
    <defs></defs>
    <g id="Public" stroke="none" stroke-width="1" fill="none" fill-rule="evenodd" sketch:type="MSPage">
        <g id="Search" sketch:type="MSArtboardGroup" transform="translate(-61.000000, -84.000000)" fill="#FFFFFF">
            <g id="Header" sketch:type="MSLayerGroup" transform="translate(40.000000, 65.000000)">
                <path d="M24.248,27.194 L27.92,27.194 L27.92,32 L31.16,32 L31.16,19.256 L27.92,19.256 L27.92,24.08 L24.248,24.08 L24.248,19.256 L21.008,19.256 L21.008,32 L24.248,32 L24.248,27.194 Z M36.434,22.28 L42.05,22.28 L42.05,19.256 L33.176,19.256 L33.176,32 L42.05,32 L42.05,28.958 L36.434,28.958 L36.434,27.05 L41.6,27.05 L41.6,24.26 L36.434,24.26 L36.434,22.28 Z M50.168,28.022 C49.466,29.786 46.586,29.354 46.586,27.824 L46.586,23.432 C46.586,21.848 49.43,21.488 50.294,23.072 L52.922,22.01 C51.896,19.742 50.006,19.076 48.44,19.076 C45.884,19.076 43.364,20.552 43.364,23.432 L43.364,27.824 C43.364,30.722 45.884,32.18 48.386,32.18 C49.988,32.18 51.914,31.388 52.976,29.318 L50.168,28.022 Z M57.386,27.194 L61.058,27.194 L61.058,32 L64.298,32 L64.298,19.256 L61.058,19.256 L61.058,24.08 L57.386,24.08 L57.386,19.256 L54.146,19.256 L54.146,32 L57.386,32 L57.386,27.194 Z M66.008,27.806 C66.008,30.722 68.654,32.18 71.3,32.18 C73.946,32.18 76.574,30.722 76.574,27.806 L76.574,23.45 C76.574,20.534 73.928,19.076 71.282,19.076 C68.636,19.076 66.008,20.516 66.008,23.45 L66.008,27.806 Z M69.23,23.45 C69.23,22.514 70.238,22.01 71.246,22.01 C72.29,22.01 73.352,22.46 73.352,23.45 L73.352,27.806 C73.352,28.724 72.326,29.192 71.3,29.192 C70.274,29.192 69.23,28.742 69.23,27.806 L69.23,23.45 Z M84.818,22.28 L90.434,22.28 L90.434,19.256 L81.56,19.256 L81.56,32 L90.434,32 L90.434,28.958 L84.818,28.958 L84.818,27.05 L89.984,27.05 L89.984,24.26 L84.818,24.26 L84.818,22.28 Z M92.144,32 L95.366,32 L95.366,26.906 L94.952,24.44 L95.042,24.422 L96.158,26.978 L99.038,32 L102.296,32 L102.296,19.256 L99.092,19.256 L99.092,25.034 C99.11,25.034 99.434,27.23 99.452,27.23 L99.362,27.248 L98.282,24.692 L95.204,19.256 L92.144,19.256 L92.144,32 Z M107.588,32 L110.81,32 L110.81,28.328 L110.594,25.754 L110.684,25.736 L112.394,30.11 L114.608,30.11 L116.282,25.736 L116.39,25.754 L116.192,28.328 L116.174,32 L119.414,32 L119.414,19.256 L116.192,19.256 L113.492,25.484 L110.81,19.256 L107.588,19.256 L107.588,32 Z M126.308,23.612 L124.13,19.256 L120.368,19.256 L123.95,25.646 L120.368,32 L124.13,32 L126.308,27.662 L128.54,32 L132.284,32 L128.72,25.646 L132.284,19.256 L128.54,19.256 L126.308,23.612 Z" id="logo" sketch:type="MSShapeGroup"></path>
            </g>
        </g>
    </g>
</svg>