<?xml version="1.0" encoding="UTF-8" standalone="no"?>
<svg width="14px" height="15px" viewBox="0 0 14 15" version="1.1" xmlns="http://www.w3.org/2000/svg" xmlns:xlink="http://www.w3.org/1999/xlink" xmlns:sketch="http://www.bohemiancoding.com/sketch/ns">
    <!-- Generator: Sketch 3.3.3 (12072) - http://www.bohemiancoding.com/sketch -->
    <title>magnifier</title>
    <desc>Created with Sketch.</desc>
    <defs></defs>
    <g id="Public" stroke="none" stroke-width="1" fill="none" fill-rule="evenodd" sketch:type="MSPage">
        <g id="Search" sketch:type="MSArtboardGroup" transform="translate(-201.000000, -88.000000)" fill="#FFFFFF">
            <g id="Header" sketch:type="MSLayerGroup" transform="translate(40.000000, 65.000000)">
                <g id="Search-Bar" transform="translate(146.000000, 10.000000)" sketch:type="MSShapeGroup">
                    <path d="M29,25.7284872 L25.3515598,22.0800127 C26.0380465,21.136209 26.4437523,19.9755426 26.4437523,18.7218419 C26.4437523,15.566798 23.8768858,13 20.7218419,13 C17.5668322,13 15,15.566798 15,18.7218419 C15,21.8768516 17.5668665,24.4436838 20.7218419,24.4436838 C21.9177216,24.4436838 23.0289252,24.0746642 23.9480316,23.4449023 L27.6157911,27.112696 L29,25.7284872 Z M16.6779722,18.7218419 C16.6779722,16.4920359 18.4920359,14.6779379 20.7218419,14.6779379 C22.9517164,14.6779379 24.7657801,16.4920017 24.7657801,18.7218419 C24.7657801,20.9516479 22.9517164,22.7657459 20.7218419,22.7657459 C18.4920359,22.7657459 16.6779722,20.9516479 16.6779722,18.7218419 Z" id="magnifier"></path>
                </g>
            </g>
        </g>
    </g>
</svg>