<?xml version="1.0" encoding="UTF-8" standalone="no"?>
<svg width="61px" height="48px" viewBox="0 0 61 48" version="1.1" xmlns="http://www.w3.org/2000/svg" xmlns:xlink="http://www.w3.org/1999/xlink" xmlns:sketch="http://www.bohemiancoding.com/sketch/ns">
    <!-- Generator: Sketch 3.4 (15575) - http://www.bohemiancoding.com/sketch -->
    <title>newspaper</title>
    <desc>Created with Sketch.</desc>
    <defs></defs>
    <g id="Public" stroke="none" stroke-width="1" fill="none" fill-rule="evenodd" sketch:type="MSPage">
        <g id="Onboarding" sketch:type="MSArtboardGroup" transform="translate(-680.000000, -429.000000)" fill="#FFFFFF">
            <g id="Interested-in?" sketch:type="MSLayerGroup" transform="translate(361.000000, 298.000000)">
                <g id="Option:-Organization" transform="translate(239.000000, 71.000000)" sketch:type="MSShapeGroup">
                    <path d="M123.009966,84.2932827 L132.608599,84.2932827 L132.608599,81.3322039 L123.009966,81.3322039 L123.009966,84.2932827 L123.009966,84.2932827 Z M123.009966,89.9193324 L132.608599,89.9193324 L132.608599,86.9582536 L123.009966,86.9582536 L123.009966,89.9193324 L123.009966,89.9193324 Z M120.073464,89.9193324 L120.073464,81.3322039 L108.475807,81.3322039 L108.475807,89.9193324 L120.073464,89.9193324 L120.073464,89.9193324 Z M141,60 L140.998223,102.834966 C140.998223,105.670643 138.69939,107.969477 135.863713,107.969477 L85.1348068,107.969477 C82.3006102,107.969477 80,105.670199 80,102.83467 L80.0017766,64.4416182 L84.4989151,64.4416182 L84.4989151,100.850747 C84.4989151,102.809353 87.4599939,102.810685 87.4599939,100.850747 L87.4599939,60 L141,60 L141,60 Z M91.8524582,64.4416182 L91.8524582,101.158995 L136.556605,101.158995 L136.556605,64.4416182 L91.8524582,64.4416182 Z M132.608599,75.7923216 L95.9406716,75.7923216 L95.9406716,78.7534004 L132.608599,78.7534004 L132.608599,75.7923216 L132.608599,75.7923216 Z M132.608599,70.2524392 L95.9406716,70.2524392 L95.9406716,73.2135181 L132.608599,73.2135181 L132.608599,70.2524392 L132.608599,70.2524392 Z M132.608599,92.5843034 L95.9406716,92.5843034 L95.9406716,95.5453822 L132.608599,95.5453822 L132.608599,92.5843034 L132.608599,92.5843034 Z M105.687359,86.9582536 L95.9406716,86.9582536 L95.9406716,89.9193324 L105.687359,89.9193324 L105.687359,86.9582536 L105.687359,86.9582536 Z M105.687359,81.3322039 L95.9406716,81.3322039 L95.9406716,84.2932827 L105.687359,84.2932827 L105.687359,81.3322039 L105.687359,81.3322039 Z" id="newspaper"></path>
                </g>
            </g>
        </g>
    </g>
</svg>