<?xml version="1.0" encoding="UTF-8" standalone="no"?>
<svg width="68px" height="69px" viewBox="0 0 68 69" version="1.1" xmlns="http://www.w3.org/2000/svg" xmlns:xlink="http://www.w3.org/1999/xlink" xmlns:sketch="http://www.bohemiancoding.com/sketch/ns">
    <!-- Generator: Sketch 3.4 (15575) - http://www.bohemiancoding.com/sketch -->
    <title>rocket</title>
    <desc>Created with Sketch.</desc>
    <defs></defs>
    <g id="Public" stroke="none" stroke-width="1" fill="none" fill-rule="evenodd" sketch:type="MSPage">
        <g id="Onboarding" sketch:type="MSArtboardGroup" transform="translate(-793.000000, -521.000000)" fill="#FFFFFF">
            <g id="Who-are-you" sketch:type="MSLayerGroup" transform="translate(480.000000, 396.000000)">
                <g id="Option:-Organization" transform="translate(240.000000, 71.000000)" sketch:type="MSShapeGroup">
                    <path d="M73.5825845,95.3795627 L76.2567255,97.9720749 C76.4784674,98.2689275 76.85245,98.3414914 77.223123,98.3414914 L77.5937961,98.3414914 L89.035016,94.789156 L100.697978,106.412582 L97.13025,117.81172 C96.9813189,118.332861 97.13025,118.774842 97.500923,119.147557 L100.102253,121.809334 C100.472926,122.033623 100.770789,122.182049 101.068651,122.182049 C101.366513,122.182049 101.588255,122.106187 101.737186,121.957761 L117.709222,112.705856 C118.079895,112.481568 118.301637,112.112151 118.301637,111.666872 L119.195223,95.9732678 C122.312848,93.3807555 124.986989,90.9399679 127.217647,88.7168722 C132.195256,83.8319986 135.686863,78.8712628 137.76528,73.8379629 C139.847006,68.8772271 140.886214,62.8808056 140.886214,56.0696889 C140.886214,55.696974 140.737283,55.4034198 140.439421,55.1065673 C140.217679,54.8855771 139.847006,54.7371508 139.473023,54.7371508 C132.268067,54.7371508 126.32406,55.696974 121.644313,57.6990795 C116.891755,59.6220243 111.986957,63.1743598 106.787606,68.3593843 C104.560258,70.5791817 102.107859,73.2442578 99.5098384,76.3546128 L83.7595446,77.2418721 C83.3127512,77.2418721 82.9420782,77.4661607 82.7203363,77.8355772 L73.4336533,93.7534704 C73.0629803,94.2713132 73.1357911,94.789156 73.5825845,95.3795627 L73.5825845,95.3795627 Z M127.58832,63.9890551 C128.703648,63.9890551 129.666736,64.36177 130.411392,65.1764653 C131.228858,65.9152983 131.599531,66.8784199 131.599531,67.9866694 C131.599531,69.0256533 131.228858,69.9854766 130.411392,70.8001719 C129.666736,71.5423032 128.703648,71.9117197 127.58832,71.9117197 C126.549111,71.9117197 125.582714,71.5423032 124.765247,70.8001719 C124.023901,69.9854766 123.649919,69.0256533 123.649919,67.9866694 C123.649919,66.8784199 124.023901,65.9152983 124.765247,65.1764653 C125.582714,64.36177 126.549111,63.9890551 127.58832,63.9890551 L127.58832,63.9890551 Z" id="rocket"></path>
                </g>
            </g>
        </g>
    </g>
</svg>