<?xml version="1.0" encoding="UTF-8" standalone="no"?>
<svg width="62px" height="48px" viewBox="0 0 62 48" version="1.1" xmlns="http://www.w3.org/2000/svg" xmlns:xlink="http://www.w3.org/1999/xlink" xmlns:sketch="http://www.bohemiancoding.com/sketch/ns">
    <!-- Generator: Sketch 3.4 (15575) - http://www.bohemiancoding.com/sketch -->
    <title>tachometer</title>
    <desc>Created with Sketch.</desc>
    <defs></defs>
    <g id="Public" stroke="none" stroke-width="1" fill="none" fill-rule="evenodd" sketch:type="MSPage">
        <g id="Onboarding" sketch:type="MSArtboardGroup" transform="translate(-442.000000, -433.000000)" fill="#FFFFFF">
            <g id="Interested-in?" sketch:type="MSLayerGroup" transform="translate(361.000000, 298.000000)">
                <g id="Option:-Innovator" transform="translate(0.000000, 71.000000)" sketch:type="MSShapeGroup">
                    <path d="M86.62218,110.919686 C87.047373,111.591275 87.656726,111.89852 88.4448225,111.89852 L135.982482,111.89852 C136.773287,111.89852 137.379931,111.591275 137.805124,110.919686 C141.027925,105.856941 142.606826,100.424413 142.606826,94.5051885 C142.606826,90.3533021 141.81873,86.3863065 140.177539,82.6640194 C138.595929,78.8819147 136.407675,75.6463254 133.731938,72.9001531 C130.99662,70.1539807 127.776528,68.0168604 124.006664,66.4316936 C120.29909,64.7839901 116.347774,63.9900472 112.215006,63.9900472 C108.079531,63.9900472 104.128215,64.7839901 100.42064,66.4316936 C96.6507764,68.0168604 93.4306842,70.1539807 90.6953663,72.9001531 C88.0196295,75.6463254 85.8313752,78.8819147 84.2524738,82.6640194 C82.6112831,86.3863065 81.8204783,90.3533021 81.8204783,94.5051885 C81.8204783,100.424413 83.3993796,105.916758 86.62218,110.919686 L86.62218,110.919686 Z M90.5112063,90.1113126 C91.6676229,90.1113126 92.7021689,90.5381929 93.5525548,91.3919534 C94.4029408,92.245714 94.8281338,93.2843653 94.8281338,94.5051885 C94.8281338,95.663475 94.4029408,96.7021264 93.5525548,97.5558869 C92.7021689,98.4096474 91.6676229,98.8365277 90.5112063,98.8365277 C89.2952085,98.8365277 88.2633707,98.4096474 87.4129848,97.5558869 C86.5625988,96.7021264 86.1346976,95.663475 86.1346976,94.5051885 C86.1346976,93.2843653 86.5625988,92.245714 87.4129848,91.3919534 C88.2633707,90.5381929 89.2952085,90.1113126 90.5112063,90.1113126 L90.5112063,90.1113126 Z M97.0163882,74.8523825 C98.1728048,74.8523825 99.2046425,75.2792628 100.055028,76.1330233 C100.908123,76.9895028 101.333316,78.0254352 101.333316,79.2462584 C101.333316,80.4072639 100.908123,81.4431963 100.055028,82.2969568 C99.2046425,83.1534363 98.1728048,83.5803165 97.0163882,83.5803165 C95.8003904,83.5803165 94.7685526,83.1534363 93.9154584,82.2969568 C93.0650724,81.4431963 92.6398794,80.4072639 92.6398794,79.2462584 C92.6398794,78.0254352 93.0650724,76.9895028 93.9154584,76.1330233 C94.7685526,75.2792628 95.8003904,74.8523825 97.0163882,74.8523825 L97.0163882,74.8523825 Z M108.019949,95.9680011 C109.114077,95.1142406 110.330074,94.6248237 111.667943,94.5051885 L115.069487,81.5057329 C115.253647,80.8939618 115.619258,80.4670815 116.104033,80.1625555 C116.651096,79.8580294 117.19816,79.7954928 117.745223,79.917847 C118.292287,80.1000189 118.779769,80.4072639 119.083092,80.9564984 C119.386414,81.4431963 119.448704,81.9924307 119.326833,82.6042018 L115.860291,95.6036574 C117.016708,96.3948813 117.807513,97.4335327 118.354576,98.7141735 C118.839351,99.9975332 118.90164,101.340711 118.536028,102.681169 C118.048546,104.451227 117.076289,105.734586 115.497388,106.648165 C113.915778,107.564462 112.274587,107.80917 110.573816,107.319753 C108.810754,106.892873 107.472886,105.856941 106.56021,104.328872 C105.647535,102.743706 105.466083,101.096002 105.891276,99.3259445 C106.256888,97.9827672 106.985403,96.8842982 108.019949,95.9680011 L108.019949,95.9680011 Z M112.215006,68.3213864 C113.428296,68.3213864 114.462842,68.7509857 115.313228,69.6047462 C116.166322,70.4585067 116.591515,71.4971581 116.591515,72.6554446 C116.591515,73.8762678 116.166322,74.9149191 115.313228,75.7686797 C114.462842,76.6224402 113.428296,77.0493204 112.215006,77.0493204 C110.999009,77.0493204 109.964463,76.6224402 109.114077,75.7686797 C108.263691,74.9149191 107.898079,73.8762678 107.898079,72.6554446 C107.898079,71.4971581 108.263691,70.4585067 109.114077,69.6047462 C109.964463,68.7509857 110.999009,68.3213864 112.215006,68.3213864 L112.215006,68.3213864 Z M127.410916,74.8523825 C128.626914,74.8523825 129.658752,75.2792628 130.511846,76.1330233 C131.362232,76.9895028 131.787425,78.0254352 131.787425,79.2462584 C131.787425,80.4072639 131.362232,81.4431963 130.511846,82.2969568 C129.658752,83.1534363 128.626914,83.5803165 127.410916,83.5803165 C126.257208,83.5803165 125.222662,83.1534363 124.372276,82.2969568 C123.519182,81.4431963 123.093989,80.4072639 123.093989,79.2462584 C123.093989,78.0254352 123.519182,76.9895028 124.372276,76.1330233 C125.222662,75.2792628 126.257208,74.8523825 127.410916,74.8523825 L127.410916,74.8523825 Z M133.975679,90.1113126 C135.132096,90.1113126 136.163934,90.5381929 137.01432,91.3919534 C137.867414,92.245714 138.292607,93.2843653 138.292607,94.5051885 C138.292607,95.663475 137.867414,96.7021264 137.01432,97.5558869 C136.163934,98.4096474 135.132096,98.8365277 133.975679,98.8365277 C132.759681,98.8365277 131.727844,98.4096474 130.87475,97.5558869 C130.024364,96.7021264 129.599171,95.663475 129.599171,94.5051885 C129.599171,93.2843653 130.024364,92.245714 130.87475,91.3919534 C131.727844,90.5381929 132.759681,90.1113126 133.975679,90.1113126 L133.975679,90.1113126 Z" id="tachometer"></path>
                </g>
            </g>
        </g>
    </g>
</svg>