<?xml version="1.0" encoding="UTF-8" standalone="no"?>
<svg width="14px" height="13px" viewBox="0 0 14 13" version="1.1" xmlns="http://www.w3.org/2000/svg" xmlns:xlink="http://www.w3.org/1999/xlink" xmlns:sketch="http://www.bohemiancoding.com/sketch/ns">
    <!-- Generator: Sketch 3.3.3 (12072) - http://www.bohemiancoding.com/sketch -->
    <title>twitter</title>
    <desc>Created with Sketch.</desc>
    <defs></defs>
    <g id="Public" stroke="none" stroke-width="1" fill="none" fill-rule="evenodd" sketch:type="MSPage">
        <g id="Search" sketch:type="MSArtboardGroup" transform="translate(-110.000000, -224.000000)" fill="#F44336">
            <g id="Details" sketch:type="MSLayerGroup" transform="translate(60.000000, 144.000000)">
                <g id="Head" transform="translate(0.000000, 1.000000)" sketch:type="MSShapeGroup">
                    <g id="Twitter" transform="translate(50.000000, 75.800000)">
                        <path d="M14,5.34678641 C13.4849223,5.57527184 12.9313447,5.72971359 12.3503447,5.79906796 C12.9432718,5.44359709 13.3987816,4.88074272 13.613199,4.21 C13.0581942,4.5391699 12.4435194,4.77818932 11.7892573,4.90697573 C11.2653447,4.34874272 10.5188592,4 9.6927233,4 C7.83874272,4 6.47584951,5.73015534 6.89486408,7.52674272 C4.50772816,7.40699515 2.39128155,6.2634466 0.974665049,4.52578155 C0.22226699,5.81646602 0.584398058,7.50557282 1.86352913,8.36049029 C1.39276214,8.3456068 0.949757282,8.21637864 0.562582524,8.00117961 C0.53142233,9.33192718 1.48501942,10.5762621 2.86629612,10.8538155 C2.46206311,10.9638107 2.01929612,10.9889903 1.56925728,10.9029854 C1.93468447,12.0440534 2.99549029,12.8744709 4.25236408,12.8976117 C3.04479612,13.8439369 1.5238932,14.2666214 0,14.087034 C1.27107767,14.9019563 2.78086893,15.3775146 4.40289806,15.3775146 C9.73553883,15.3775146 12.7483592,10.8733544 12.566767,6.8336068 C13.1280243,6.42866019 13.614932,5.92279126 14,5.34678641 L14,5.34678641 Z" id="twitter"></path>
                    </g>
                </g>
            </g>
        </g>
    </g>
</svg>