<?xml version="1.0" encoding="UTF-8" standalone="no"?>
<svg width="13px" height="13px" viewBox="0 0 13 13" version="1.1" xmlns="http://www.w3.org/2000/svg" xmlns:xlink="http://www.w3.org/1999/xlink" xmlns:sketch="http://www.bohemiancoding.com/sketch/ns">
    <!-- Generator: Sketch 3.3.3 (12072) - http://www.bohemiancoding.com/sketch -->
    <title>user-outline</title>
    <desc>Created with Sketch.</desc>
    <defs></defs>
    <g id="Public" stroke="none" stroke-width="1" fill="none" fill-rule="evenodd" sketch:type="MSPage">
        <g id="Search" sketch:type="MSArtboardGroup" transform="translate(-580.000000, -316.000000)" fill="#999899">
            <g id="Overlays" sketch:type="MSLayerGroup" transform="translate(40.000000, 65.000000)">
                <g id="Login" transform="translate(495.000000, 135.000000)" sketch:type="MSShapeGroup">
                    <g id="Form" transform="translate(30.000000, 100.000000)">
                        <g id="Email">
                            <g transform="translate(0.000000, 15.000000)">
                                <path d="M27.9974681,13.9794101 L15.00266,13.9794101 C15.00266,12.3672229 14.9567814,11.714731 15.2460941,11.0880183 C15.5368583,10.4582448 16.1083527,10.0643327 17.044667,9.84838154 C19.4023023,9.30531673 19.3956129,9.11981454 19.1191424,8.61070114 C17.8170616,6.21280381 17.5803799,4.08468768 18.452704,2.61837165 C19.0645867,1.58985845 20.1753279,1 21.5000956,1 C22.8148924,1 23.9187235,1.5814337 24.5285552,2.59517994 C25.5975514,4.37223342 24.855448,6.77363317 23.8839517,8.60524241 C23.6114253,9.11883639 23.6052724,9.30620022 25.9554926,9.84838154 C26.8917754,10.0643327 27.4632698,10.4582448 27.7540024,11.0880183 C28.0423685,11.7125538 27.9974681,12.3469656 27.9974681,13.9794101 L27.9974681,13.9794101 L27.9974681,13.9794101 Z M16.2659617,12.7136472 L26.7341664,12.7136472 C26.7346397,11.5753283 26.6590378,11.309649 25.6710391,11.0817391 C24.3238686,10.771191 23.0424868,10.4887569 22.6231427,9.57020715 C22.4132497,9.11047475 22.4612108,8.58624729 22.7657954,8.01213396 C23.4959401,6.63561879 24.242808,4.57556325 23.4439401,3.2476718 C23.0630596,2.61449059 22.3727037,2.26579445 21.5001272,2.26579445 C20.6200094,2.26579445 19.9241001,2.62086437 19.5405691,3.26556255 C18.9147398,4.31748835 19.1665987,6.04557102 20.2315245,8.00673834 C20.5419779,8.57845361 20.5938832,9.10249175 20.3857573,9.56411736 C19.9660661,10.4949414 18.6785629,10.7710332 17.3291836,11.0817707 C16.3410903,11.3096175 16.2654884,11.5752967 16.2659617,12.7136472 L16.2659617,12.7136472 L16.2659617,12.7136472 Z" id="user-outline"></path>
                            </g>
                        </g>
                    </g>
                </g>
            </g>
        </g>
    </g>
</svg>