<?xml version="1.0" encoding="UTF-8" standalone="no"?>
<svg width="18px" height="18px" viewBox="0 0 18 18" version="1.1" xmlns="http://www.w3.org/2000/svg" xmlns:xlink="http://www.w3.org/1999/xlink" xmlns:sketch="http://www.bohemiancoding.com/sketch/ns">
    <!-- Generator: Sketch 3.3.3 (12072) - http://www.bohemiancoding.com/sketch -->
    <title>vcfund</title>
    <desc>Created with Sketch.</desc>
    <defs></defs>
    <g id="Public" stroke="none" stroke-width="1" fill="none" fill-rule="evenodd" sketch:type="MSPage">
        <g id="Search" sketch:type="MSArtboardGroup" transform="translate(-732.000000, -468.000000)" fill="#FFFFFF">
            <g id="Pins" sketch:type="MSLayerGroup" transform="translate(624.000000, 276.000000)">
                <g id="Gov-Copy-2" transform="translate(103.000000, 187.000000)" sketch:type="MSShapeGroup">
                    <path d="M14,5 C9.0361964,5 5,9.0362 5,14 C5,18.9638 9.0361964,23 14,23 C18.963807,23 23,18.9638 23,14 C23,9.0362 18.963807,5 14,5 L14,5 Z M14,6.1375 C18.3500536,6.1375 21.8625,9.6499498 21.8625,14 C21.8625,18.35005 18.3500536,21.8625 14,21.8625 C9.6499498,21.8625 6.1375,18.35005 6.1375,14 C6.1375,9.6499498 9.6499498,6.1375 14,6.1375 L14,6.1375 Z M14,7.025 C13.7527218,7.025 13.55625,7.2277218 13.55625,7.475 L13.55625,8.53125 C12.6704232,8.607905 11.8094476,8.8971946 11.2625,9.44375 C10.7317782,9.9768488 10.4625,10.660247 10.4625,11.49375 C10.4625,12.1335214 10.6034418,12.6616148 10.875,13.06875 C11.1465492,13.4760902 11.4948326,13.7857916 11.93125,14.00625 C12.366115,14.2260318 12.90928,14.427454 13.55625,14.60625 L13.55625,18 C13.55489,17.9996 13.54375,18 13.54375,18 C13.2191396,17.908052 12.9775462,17.7621748 12.78125,17.5875 C12.584951,17.413001 12.4406188,17.2231518 12.34375,17.0125 C12.2466822,16.8016726 12.1308612,16.497475 12,16.1 C11.9420356,15.9160748 11.837822,15.7705338 11.6875,15.66875 C11.5371808,15.5667614 11.3556164,15.51875 11.1375,15.51875 C10.8659536,15.51875 10.638003,15.6133232 10.45625,15.8 C10.2744822,15.9866768 10.18125,16.1923638 10.18125,16.425 C10.18125,16.7401872 10.25192,17.0603692 10.3875,17.3875 C10.52308,17.714865 10.7289662,18.0346954 11.0125,18.3375 C11.296236,18.6404802 11.650775,18.8901824 12.075,19.09375 C12.5126986,19.299372 13.0233902,19.423422 13.55625,19.46875 L13.55625,20.525 C13.55625,20.7722782 13.7527218,20.975 14,20.975 C14.2472782,20.975 14.44375,20.7722782 14.44375,20.525 L14.44375,19.475 C15.0923868,19.4199006 15.7318196,19.243503 16.28125,18.9375 C16.785254,18.6321486 17.1718842,18.232368 17.43125,17.75 C17.6906186,17.2678078 17.81875,16.7527412 17.81875,16.2 C17.81875,15.7588782 17.7372978,15.3520276 17.575,14.98125 C17.4125002,14.6104724 17.1816864,14.291652 16.88125,14.025 C16.6000726,13.768184 16.2751806,13.5730946 15.91875,13.4375 C15.5625008,13.3017296 15.0883698,13.1525436 14.4875,12.9875 L14.44375,12.975 L14.44375,9.95625 C14.458324,9.959136 14.4727634,9.959296 14.4875,9.9625 C15.098194,10.1613252 15.4838058,10.5629652 15.64375,11.16875 C15.7842422,11.6823822 16.0936244,11.9375 16.56875,11.9375 C16.8208502,11.9375 17.029213,11.8520166 17.20625,11.675 C17.3832842,11.4983348 17.475,11.286017 17.475,11.04375 C17.475,10.8256334 17.4124362,10.5869096 17.29375,10.325 C17.1750696,10.063266 17.011852,9.809685 16.79375,9.5625 C16.5174818,9.2378868 16.1895276,8.9976258 15.81875,8.8375 C15.4201918,8.6697542 14.9443462,8.5630358 14.44375,8.525 L14.44375,7.475 C14.44375,7.2277218 14.2472782,7.025 14,7.025 L14,7.025 Z M13.55625,9.93125 L13.55625,12.71875 C13.1229106,12.5593258 12.7997748,12.376874 12.5875,12.18125 C12.374313,11.9849716 12.26875,11.6954554 12.26875,11.3125 C12.26875,10.9102828 12.384571,10.6113546 12.6125,10.4125 C12.8390622,10.2150442 13.216808,9.9666284 13.55625,9.93125 L13.55625,9.93125 Z M14.44375,14.8625 L14.4875,14.875 C14.991501,15.0349502 15.3718814,15.2324108 15.63125,15.4625 C15.8906186,15.6927944 16.01875,16.0220952 16.01875,16.44375 C16.01875,16.8365706 15.8851882,17.1794846 15.61875,17.475 C15.352107,17.7707204 14.976958,17.9654292 14.4875,18.0625 C14.472468,18.064838 14.4586836,18.066796 14.44375,18.06875 L14.44375,14.8625 L14.44375,14.8625 Z" id="vcfund"></path>
                </g>
            </g>
        </g>
    </g>
</svg>